<svg xmlns="http://www.w3.org/2000/svg" width="97.549" height="111.484" viewBox="0 0 97.549 111.484">
  <path id="Icon_awesome-building" data-name="Icon awesome-building" d="M94.936,104.517H90.581V5.226A5.226,5.226,0,0,0,85.355,0H12.194A5.226,5.226,0,0,0,6.968,5.226v99.291H2.613A2.613,2.613,0,0,0,0,107.13v4.355H97.549V107.13A2.613,2.613,0,0,0,94.936,104.517ZM27.871,16.548a2.613,2.613,0,0,1,2.613-2.613h8.71a2.613,2.613,0,0,1,2.613,2.613v8.71a2.613,2.613,0,0,1-2.613,2.613h-8.71a2.613,2.613,0,0,1-2.613-2.613Zm0,20.9a2.613,2.613,0,0,1,2.613-2.613h8.71a2.613,2.613,0,0,1,2.613,2.613v8.71a2.613,2.613,0,0,1-2.613,2.613h-8.71a2.613,2.613,0,0,1-2.613-2.613ZM39.194,69.678h-8.71a2.613,2.613,0,0,1-2.613-2.613v-8.71a2.613,2.613,0,0,1,2.613-2.613h8.71a2.613,2.613,0,0,1,2.613,2.613v8.71A2.613,2.613,0,0,1,39.194,69.678Zm16.548,34.839H41.807V86.226a2.613,2.613,0,0,1,2.613-2.613h8.71a2.613,2.613,0,0,1,2.613,2.613ZM69.678,67.065a2.613,2.613,0,0,1-2.613,2.613h-8.71a2.613,2.613,0,0,1-2.613-2.613v-8.71a2.613,2.613,0,0,1,2.613-2.613h8.71a2.613,2.613,0,0,1,2.613,2.613Zm0-20.9a2.613,2.613,0,0,1-2.613,2.613h-8.71a2.613,2.613,0,0,1-2.613-2.613v-8.71a2.613,2.613,0,0,1,2.613-2.613h8.71a2.613,2.613,0,0,1,2.613,2.613Zm0-20.9a2.613,2.613,0,0,1-2.613,2.613h-8.71a2.613,2.613,0,0,1-2.613-2.613v-8.71a2.613,2.613,0,0,1,2.613-2.613h8.71a2.613,2.613,0,0,1,2.613,2.613Z" fill="#7c7b7b"/>
</svg>
