<svg xmlns="http://www.w3.org/2000/svg" width="27.942" height="35.998" viewBox="0 0 27.942 35.998">
  <path id="Icon_simple-django" data-name="Icon simple-django" d="M16.719,0H22.6V27.247a38.849,38.849,0,0,1-7.644.8c-7.187,0-10.932-3.249-10.932-9.48,0-6,3.975-9.9,10.13-9.9a9.4,9.4,0,0,1,2.561.306Zm0,13.715a5.841,5.841,0,0,0-1.988-.306c-2.982,0-4.7,1.835-4.7,5.046,0,3.135,1.644,4.854,4.663,4.854a13.581,13.581,0,0,0,2.025-.153V13.713ZM31.971,9.09V22.736c0,4.7-.344,6.957-1.375,8.906C29.64,33.514,28.379,34.7,25.779,36l-5.466-2.6c2.6-1.222,3.861-2.293,4.663-3.938.841-1.681,1.108-3.632,1.108-8.752V9.089h5.886ZM26.085.032h5.886V6.07H26.085Z" transform="translate(-4.029)"/>
</svg>
