<svg xmlns="http://www.w3.org/2000/svg" width="112.401" height="112.401" viewBox="0 0 112.401 112.401">
  <path id="Icon_awesome-question-circle" data-name="Icon awesome-question-circle" d="M112.964,56.763a56.2,56.2,0,1,1-56.2-56.2A56.2,56.2,0,0,1,112.964,56.763ZM58.271,19.145c-12.35,0-20.227,5.2-26.412,14.449a2.723,2.723,0,0,0,.615,3.684l7.863,5.962a2.719,2.719,0,0,0,3.777-.481c4.048-5.135,6.824-8.112,12.986-8.112,4.63,0,10.356,2.98,10.356,7.469,0,3.394-2.8,5.137-7.373,7.7C54.753,52.8,47.7,56.523,47.7,65.828v.906a2.72,2.72,0,0,0,2.719,2.719h12.69a2.72,2.72,0,0,0,2.719-2.719v-.3c0-6.45,18.851-6.718,18.851-24.172C84.679,29.116,71.045,19.145,58.271,19.145Zm-1.508,56.2A10.424,10.424,0,1,0,67.187,85.77,10.436,10.436,0,0,0,56.763,75.346Z" transform="translate(-0.563 -0.563)" fill="#fae2b7"/>
</svg>
