<svg xmlns="http://www.w3.org/2000/svg" width="34.875" height="34.875" viewBox="0 0 34.875 34.875">
  <path id="Icon_awesome-wordpress-simple" data-name="Icon awesome-wordpress-simple" d="M18,.563A17.438,17.438,0,1,0,35.438,18,17.457,17.457,0,0,0,18,.563ZM2.32,18a15.57,15.57,0,0,1,1.357-6.377l7.481,20.489A15.691,15.691,0,0,1,2.32,18ZM18,33.68a15.618,15.618,0,0,1-4.43-.64l4.7-13.669,4.816,13.2a2.119,2.119,0,0,0,.112.218A15.7,15.7,0,0,1,18,33.68Zm2.159-23.027c.942-.049,1.793-.148,1.793-.148a.649.649,0,0,0-.1-1.294s-2.538.2-4.177.2c-1.54,0-4.127-.2-4.127-.2a.649.649,0,0,0-.1,1.294s.8.1,1.645.148l2.44,6.694L14.1,27.633,8.4,10.652c.942-.049,1.793-.148,1.793-.148a.649.649,0,0,0-.1-1.294s-2.538.2-4.177.2c-.3,0-.64-.007-1.012-.021A15.68,15.68,0,0,1,28.589,6.434a1.986,1.986,0,0,0-.2-.014A2.714,2.714,0,0,0,25.755,9.2c0,1.294.745,2.384,1.54,3.677a8.228,8.228,0,0,1,1.294,4.324,18.825,18.825,0,0,1-1.2,5.07L25.833,27.5,20.159,10.652Zm5.723,20.9L30.67,17.7a14.83,14.83,0,0,0,1.2-5.618,11.54,11.54,0,0,0-.105-1.61,15.681,15.681,0,0,1-5.878,21.073Z" transform="translate(-0.563 -0.563)"/>
</svg>
