<svg id="Layer_1" data-name="Layer 1" xmlns="http://www.w3.org/2000/svg" viewBox="0 0 1000 1080"><defs><style>.cls-1{fill:#2b2b2b;}.cls-2{fill:#ea7e34;}.cls-3{fill:#232323;}</style></defs><title>Artboard 1</title><g id="Colours"><path id="Mug" class="cls-1" d="M27.78,333.16s-18.29,577.41,0,595.65c83.35,28.16,521.81,111.07,700.85-5.63,1.93-105.86,8.69-590,8.69-590S394.94,466.18,27.78,333.16Z"/><polygon id="Cat" class="cls-2" points="117.32 365.69 110.7 333.16 102.68 273.9 98.74 199.01 102.68 144.95 107.08 107.49 124.64 95.96 150.54 101.59 177.01 118.48 200.1 155.09 216.99 193.94 227.69 217.03 255.85 202.95 294.14 182.12 369.04 174.23 416.34 179.3 503.62 210.27 531.21 217.03 558.24 172.54 603.86 124.11 628.63 122.43 642.13 141.01 647.78 197.32 651.72 249.69 651.16 306 651.72 358.73 519.39 378.62 414.65 390.47 290.2 390.47 188.27 381.56 117.32 365.69"/><polygon id="Mug-Inner" class="cls-3" points="99.86 279.89 117.32 365.69 79.59 356.68 39.5 333.68 26.66 322.79 39.5 306 64.39 285.29 99.86 279.89"/><polygon id="Mug-Inner-2" data-name="Mug-Inner" class="cls-3" points="651.72 268.84 651.72 358.73 737.32 333.16 737.32 313.78 728.63 296.99 703.53 279.89 651.72 268.84"/></g><path d="M402.5,991.52c-108.36-.88-216-8.69-321.78-34-19.38-4.63-38.23-11.75-57-18.49-13.61-4.87-9.05-17.76-9.06-27.11-.11-80.38.44-160.77,1-241.16q1.22-160.47,3-320.93c.16-13.47-.76-29,5.39-39.81,6.8-12,20.27-21.1,32.51-28.8,8.41-5.28,19.72-5.86,29.62-8.92,1.63-.5,4-3.16,3.76-4.5-7.74-54,.16-107.38,7-160.76,1.66-13,9.89-19.15,22.5-18.58,31.36,1.42,58.89,11.59,75.44,40,13.34,22.9,24.43,47.11,36.7,70.65.68,1.3,3.71,2.91,4.38,2.46,49.31-32.78,104.51-38,161.42-34.07,45.11,3.1,87.38,16,126.29,39.46.57.34,3.32-1.65,4-3.07,18.61-36.74,42.3-69,79-89.8,17-9.64,35.38-5.26,39.65,13.06,6.69,28.62,9.73,58.13,13.48,87.37,1.74,13.61,1.29,27.49,2.37,41.2.16,2.1,2.91,5.37,4.92,5.77,31.84,6.29,60.35,18.27,77.79,47.49,3.29,5.51,2.23,13.64,3,20.59.15,1.35-.74,2.79-.75,4.19q-.24,58.85-.37,117.7a26.14,26.14,0,0,0,.64,4.06,24,24,0,0,0,2.74-3.52c13.82-26.72,30.6-51.11,54.67-69.79,42.86-33.26,92-29.14,127.63,11.74,34.47,39.53,47.4,87.89,51.76,138.58,7.56,88.12-6.21,172-55.7,247.33-19.24,29.26-44,53.48-80,60.29-43,8.11-72.66-13.7-96.35-46.68-3.13-4.36-6.17-8.78-9.26-13.17-.36,5.49-.94,11-1,16.48-.73,41.27-1.2,82.56-2.32,123.82-.12,4.28-2.95,9.7-6.28,12.48C701,960,661.07,967.34,621.57,974.59,549.19,987.86,476,992,402.5,991.52ZM723.92,632q2.79-142.17,5.4-284.34c0-1-3.27-3.33-4.31-3-22.87,7.74-45.12,18.1-68.51,23.37-165,37.18-331.4,39.76-498.34,15-41.2-6.1-82-14.91-118.08-37.89-.13-.08-2.75,2.39-2.75,3.68q-1.26,243.81-2.28,487.62c-.12,25.62-.95,51.25-.31,76.85.11,4.38,5.16,11.14,9.33,12.51,20.05,6.59,40.33,12.87,61,17.16,136.3,28.33,274.06,33.28,412.57,24,59.72-4,119-10.78,175.76-31.52,25.88-9.47,26.72-10.57,26.76-36.93C720.27,809.73,722.67,632,723.92,632ZM641.28,291H642c0-3.85.23-7.71,0-11.53-3.06-44.17-5.9-88.35-9.54-132.47-.87-10.49-8.92-10.26-14.65-4.32a141,141,0,0,0-19.22,25.64c-23.4,39.38-39.73,81.69-51.07,126a4.45,4.45,0,0,1-.41,1c-2.43,4.47-9.27,3.13-10.05-1.89a4.25,4.25,0,0,1,.05-1.71c12.35-49.4,30.86-96.3,57.77-139.71l0,0a1.34,1.34,0,0,0-2-1.69l-.11.1c-24,24-44.06,50.63-53.69,83.95a135.55,135.55,0,0,1-9.37,24.58c-1.42,2.75-7.38,5.59-10,4.69-3-1.05-6.27-6.13-6.38-9.56-.17-5.73,1.68-11.66,3.4-17.28,2-6.63,4.58-11.45-5.56-14.87-27-9.12-52.77-22.89-80.31-29.33-63.26-14.79-125-10-182.53,23.95-8.28,4.88-10.91,9.69-9.44,19.22.55,3.58-1.63,7.57-3.65,11.54a3.46,3.46,0,0,1-5.47.93c-3.29-3.13-6.79-6.24-7.41-9.83C215.65,199.18,195,166.51,174.29,134c-10.4-16.33-27.86-22.29-45.84-26.43a6.69,6.69,0,0,0-2.22.27c.5.55,1,1.11,1.49,1.65,10.58,11.42,23.08,21.6,31.4,34.48,26,40.29,41.83,84.87,49.48,132.21a6.76,6.76,0,0,1,0,1.8,5.33,5.33,0,0,1-10.25,1.45,6.72,6.72,0,0,1-.38-1.23c-10.26-49-26.45-95.74-54.84-137.41-6.05-8.88-15-15.8-23-23.31-.75-.71-5.34.8-5.38,1.45-2.65,42.9-7.44,85.86-6.63,128.72.63,33.85,8.14,67.57,12.73,101.34.36,2.7,1.33,7.27,2.78,7.59,17,3.78,34.19,6.95,51.35,10.14.93.17,3.08-1.13,3-1.54-1.21-10-19-27.36-29.43-29.31a7.31,7.31,0,0,1-3.2-2,1.91,1.91,0,0,1,0-2.86c1.38-1.22,2.77-2.47,3.42-2.16,8.38,3.93,17.9,7,24.27,13.16s8.78,16.3,14.45,23.49c2.5,3.17,8.76,3.37,13.32,4.91.21-.88.87-1.95.58-2.62-12.29-28.75-24-57.83-49.59-78.26-1.48-1.18-2-3.62-2.57-5.9a1.49,1.49,0,0,1,1.46-1.87c2.31,0,4.73-.1,6.24,1,28.71,21.22,41.74,52.21,52.3,84.72.55,1.72,2.33,4.1,3.77,4.28,9.69,1.2,32.72,2.1,32.72,2.1l73.14,4.52q3.93.24,7.87.24c14,0,61.84-.13,85.32-.46,1.07,0,79.88-4.88,101.19-6.27,7.84-.51,11.32-3.59,15.21-10.43,9.06-15.92,18.58-32.07,30.76-45.57,7.5-8.31,20.22-11.92,30.65-17.53.74-.39,2,.18,3,.3-.48.68-.81,1.73-1.47,2-25.19,10.64-35.6,34.4-49.06,55.4-2.44,3.8-3.87,8.24-5.76,12.39,4.41-.28,8.82-.75,13.23-.81,11.56-.17,20-3.91,27.25-14.37,6.39-9.27,16.64-16.12,25.93-23,3.64-2.71,9.29-2.76,14.06-3.86.61-.13,1.46.75,2.19,1.16-.62.45-1.27.87-1.87,1.35q-18.81,15.35-37.57,30.75c-.74.61-.91,1.9-1.35,2.87a13.08,13.08,0,0,0,3.53.34c18.27-3.39,36.54-6.73,54.72-10.52,1.83-.38,4.3-3.68,4.33-5.66C641.42,328.1,641.28,309.53,641.28,291Zm102,327.14c0,25.13,1,50.32-.23,75.4-1.9,39.47,14.48,71.79,38.89,100.24,26.33,30.68,62.18,35.1,92.88,8.86a218.76,218.76,0,0,0,49.29-60.82c34.25-63.25,44-132.28,38-203.46-3.79-45.19-13.79-88.87-42.58-125.6C889.92,374.9,849.1,369.89,814,402.66c-40.9,38.21-67.2,85.06-68.51,142.91C745,569.73,744,618.1,743.27,618.1ZM661.8,346c-1.33-.32.21.6,1.28.22,21.21-7.54,42.41-15.13,63.44-23.14,1.36-.52,2.72-5.41,1.82-6.85-14.75-23.45-38.9-30.77-63.91-36.36-.64-.15-2.51,1.78-2.52,2.75C661.76,303.12,661.8,323.58,661.8,346ZM91.39,290.79c-23.28-.18-37.4,13.43-51.74,26.48-.5.46.33,3.75,1.26,4.2Q73.16,337,105.65,352c.11,0,1.58-1.71,1.42-2.38q-6.6-27.83-13.52-55.58A8.24,8.24,0,0,0,91.39,290.79Z"/><path d="M468.52,377.33c.08-2.15-3.7-1.12-3.7-14,0-43.37-15.08-78.54-33.68-78.54s-33.68,35.17-33.68,78.54c0,18.23-4.06,12-5.75,16a1.33,1.33,0,0,0,1.1,1.83S468.3,383.51,468.52,377.33Z"/><path d="M270.08,377.86c-.07-2.15,3.7-1.13,3.7-14,0-43.38,15.08-78.54,33.68-78.54s33.69,35.16,33.69,78.54c0,18.22,4.05,12,5.74,15.95a1.32,1.32,0,0,1-1.1,1.83S270.3,384,270.08,377.86Z"/></svg>