<svg xmlns="http://www.w3.org/2000/svg" width="111.715" height="144.276" viewBox="0 0 111.715 144.276">
  <path id="Icon_weather-raindrop" data-name="Icon weather-raindrop" d="M11.772,97.146a52.925,52.925,0,0,0,7.5,27.527A57.008,57.008,0,0,0,39.62,145.023a53.784,53.784,0,0,0,27.741,7.6,54.83,54.83,0,0,0,27.956-7.6,56.765,56.765,0,0,0,20.565-20.351,53.308,53.308,0,0,0,7.6-27.527c0-6.427-1.821-14.031-5.57-22.921a132.907,132.907,0,0,0-13.5-24.635c-4.713-6.105-10.282-12.853-16.709-20.137s-17.673-18.53-20.244-21.1L53.759,22.169A166.306,166.306,0,0,0,34.586,44.448,164.236,164.236,0,0,0,18.627,71.761C13.914,81.508,11.772,89.969,11.772,97.146Z" transform="translate(-11.772 -8.352)" fill="#faa4a4"/>
</svg>
