<svg id="Layer_1" data-name="Layer 1" xmlns="http://www.w3.org/2000/svg" viewBox="0 0 559.32 558.79"><defs><style>.cls-1{fill:#fff;}.cls-2{fill:#eb1e24;}.cls-3{fill:#f4e915;}</style></defs><title>indigenous-logo</title><rect class="cls-1" x="133.84" y="204.51" width="39.87" height="63.82"/><path d="M116.68,574.41c.12,0,.33.05.35,0a4.87,4.87,0,0,0,.28-.84c.47-1.67.88-3.37,1.41-5a30.59,30.59,0,0,0,1.42-6.56,17.89,17.89,0,0,0-.47-5.05,15.27,15.27,0,0,0-.58-2,13.88,13.88,0,0,1-.73-6.48,18.7,18.7,0,0,1,.47-3.1,20.45,20.45,0,0,0,.72-5,20,20,0,0,1,1.86-7c.88-1.9,1.8-3.78,2.7-5.67.28-.58.55-1.17.86-1.74a6.36,6.36,0,0,0,.55-3.06c0-2.24-.13-4.48-.21-6.72a19.62,19.62,0,0,1,.44-4.46c.44-2.25.93-4.49,1.32-6.74a19.1,19.1,0,0,1,2.18-6,75.23,75.23,0,0,1,4.84-7.73,7.67,7.67,0,0,0,1.46-4.45,42.85,42.85,0,0,1,4.12-17.48,45.44,45.44,0,0,1,5.75-9.07c.68-.85,1.38-1.71,2-2.61a10.58,10.58,0,0,0,1.92-5.58,13.93,13.93,0,0,1,1.57-5.26c.72-1.54,1.5-3,2.25-4.56a11.18,11.18,0,0,0,.56-1.22,21.56,21.56,0,0,1,4.87-7.47c1.55-1.61,3.21-3.14,4.78-4.74a37.31,37.31,0,0,0,2.61-2.87,11,11,0,0,0,2.25-5,15.87,15.87,0,0,1,2.65-6.29c1.28-1.84,2.51-3.72,3.82-5.54a32.64,32.64,0,0,1,8.65-8c.58-.39,1.18-.75,1.78-1.11a7.75,7.75,0,0,0,2.88-3c.5-.92,1-1.84,1.46-2.78a43.89,43.89,0,0,1,10.75-13.86,53.09,53.09,0,0,1,7.06-5q2.49-1.51,4.92-3.12a16.81,16.81,0,0,0,2-1.59,15.38,15.38,0,0,0,4-5.37,8.56,8.56,0,0,1,2.32-3.07,14.45,14.45,0,0,1,1.16-.94,47.45,47.45,0,0,0,5.18-4.3,22,22,0,0,1,7.9-4.72c1.69-.59,3.37-1.24,5.06-1.82a13.54,13.54,0,0,0,6-4,47,47,0,0,1,6.92-6.39A39.86,39.86,0,0,1,263.48,334a62.83,62.83,0,0,1,7.5-2c.68-.15,1.37-.27,2-.45a4.88,4.88,0,0,0,2.77-1.67,23.91,23.91,0,0,1,8.25-6.55c2.61-1.35,5.28-2.58,7.92-3.88a2.54,2.54,0,0,1,1.43-.35,19.79,19.79,0,0,0,6.36-.68,17.82,17.82,0,0,1,5.49-.52,4.33,4.33,0,0,0,3-.81,7.41,7.41,0,0,0,.95-.72,24.36,24.36,0,0,1,7-4.17c2.2-.93,4.43-1.82,6.65-2.7a27.92,27.92,0,0,1,9.94-1.87,56.64,56.64,0,0,1,7.92.29l.3,0c2.74.21,2.75.22,5.17-.94a46.06,46.06,0,0,1,8.95-3.32,34.4,34.4,0,0,1,6.77-1.1q3.89-.18,7.77-.45a5.13,5.13,0,0,1,2.76.47,5.93,5.93,0,0,0,3.19.58c1.44-.11,2.89-.1,4.33-.24a16.89,16.89,0,0,0,3.08-.57,59.17,59.17,0,0,1,11.58-2.19c1.44-.12,2.88-.23,4.33-.33a21.48,21.48,0,0,1,6.93.89c3,.8,6,1.49,9,2.1a11.31,11.31,0,0,0,5.62-.38,17.13,17.13,0,0,1,10.87.26,7.28,7.28,0,0,0,2.92.4,14.88,14.88,0,0,1,6,1c1.63.59,3.24,1.29,4.86,1.92,1.21.47,2.41,1,3.63,1.38a8.48,8.48,0,0,0,3.82.39,25,25,0,0,1,6.41.11,70.9,70.9,0,0,1,8.34,1.73,43.83,43.83,0,0,1,8.94,3.75l6.24,3.23c.18.09.37.16.54.26a8.89,8.89,0,0,0,5.2.95,22.62,22.62,0,0,1,8.56,1.06c2.39.7,4.72,1.59,7.13,2.21a11.84,11.84,0,0,1,6.22,3.87,35.5,35.5,0,0,0,4.22,3.8c1.22,1,2.53,1.94,3.78,2.94a5.66,5.66,0,0,0,3,1.25c.89.09,1.78.21,2.67.3a22.3,22.3,0,0,1,5.73,1.66,44.22,44.22,0,0,1,10.87,5.9,28.13,28.13,0,0,1,5.29,5.05,12.41,12.41,0,0,0,8.13,4.6,15.68,15.68,0,0,1,6.49,2.52c1.73,1.17,3.4,2.45,5.09,3.67,1.09.79,2.15,1.63,3.29,2.35a6.88,6.88,0,0,1,2.65,2.78,33.37,33.37,0,0,0,4.86,7,18.82,18.82,0,0,1,1.72,2.44,6,6,0,0,0,2.5,2.29,3.87,3.87,0,0,0,.55.25,20.79,20.79,0,0,1,5.93,3.42A65.33,65.33,0,0,1,595,384a32.18,32.18,0,0,1,5.32,7.37c.86,1.63,1.81,3.22,2.82,4.76a11.34,11.34,0,0,0,5.88,4.63,6,6,0,0,1,2.53,1.8,79.24,79.24,0,0,1,11,16.11q1.44,2.79,2.72,5.66a9.59,9.59,0,0,0,4.42,4.89,10.74,10.74,0,0,1,3.76,3.36c.61.84,1.18,1.73,1.71,2.63,1.58,2.72,3.12,5.45,4.68,8.17a16.39,16.39,0,0,1,1.64,4.16c.59,2.32,1.16,4.64,1.82,6.94a35.57,35.57,0,0,0,1.43,3.93,14.78,14.78,0,0,0,2.65,4.13,32.69,32.69,0,0,1,6.64,11.25,50.17,50.17,0,0,1,1.72,7.42c.62,3.28,1.24,6.56,1.88,9.83a5.91,5.91,0,0,0,1.23,2.54,16.9,16.9,0,0,0,1.68,1.9,13.79,13.79,0,0,1,3.93,7.08c.38,1.5.79,3,1.2,4.48a27,27,0,0,1,1,11.09c-.67,4.66.57,8.89,2.83,12.9a19.58,19.58,0,0,1,2.07,5.11,23.72,23.72,0,0,1,.62,5,5.7,5.7,0,0,0,.41,2.34,10.58,10.58,0,0,1,.43,6.17c-.41,2.56-1,5.09-1.48,7.63a21.23,21.23,0,0,0-.33,2.22,6.12,6.12,0,0,0,.58,3.2c.54,1.17,1.08,2.35,1.55,3.56a14.3,14.3,0,0,1,1.07,6.72,8.65,8.65,0,0,0,.68,4.24,6.3,6.3,0,0,1,.54,2.16v3.51a11.63,11.63,0,0,1-.9,4.07c-.72,1.85-1.49,3.69-2.22,5.55a14.11,14.11,0,0,0-1,5.85,17.63,17.63,0,0,0,1.12,5.55,11.27,11.27,0,0,1,.71,3.8,12.46,12.46,0,0,1-.63,4.86,5.59,5.59,0,0,0-.33,2.62,14.51,14.51,0,0,1-.34,4.45A24,24,0,0,1,670.2,625c-.79,1.61-1.68,3.17-2.47,4.78a9.66,9.66,0,0,0-.79,7.67,13.25,13.25,0,0,1,.27,7.66c-.71,3-1.48,5.9-2.27,8.83a19.83,19.83,0,0,1-2.67,6c-.92,1.36-1.78,2.77-2.64,4.16a33,33,0,0,0-2.72,5.49,5.67,5.67,0,0,0-.37,2.34,21.14,21.14,0,0,1,0,2.39,20,20,0,0,1-1,4.82c-.57,1.85-1.19,3.7-1.68,5.58a23.73,23.73,0,0,1-1.59,4.49,33.74,33.74,0,0,1-3.48,5.57c-1.31,1.76-2.61,3.53-4,5.26a13.35,13.35,0,0,0-2.76,7.46,14.07,14.07,0,0,1-1,4.36c-.74,1.79-1.59,3.54-2.41,5.3-.57,1.22-1.26,2.39-1.76,3.63a14.21,14.21,0,0,1-4.41,5.75c-.94.75-1.93,1.42-2.92,2.09a12.7,12.7,0,0,0-5.71,8.26,12.71,12.71,0,0,1-1.63,4.15c-.83,1.36-1.73,2.68-2.62,4-.78,1.16-1.66,2.25-2.37,3.45a26.28,26.28,0,0,1-7.09,7.61q-2.18,1.61-4.41,3.1a8.29,8.29,0,0,0-2.79,3.06c-.29.52-.53,1.07-.79,1.61a50.33,50.33,0,0,1-6.85,11,35.44,35.44,0,0,1-14.78,10.62,8.49,8.49,0,0,0-4.59,3.83,35.19,35.19,0,0,1-3.76,5.21,21.11,21.11,0,0,1-5.22,4.89,14,14,0,0,0-3.2,2.67,8.48,8.48,0,0,1-3.45,2.28c-3.7,1.36-7.36,2.79-11,4.17a2.38,2.38,0,0,0-1.28,1,27.07,27.07,0,0,1-7.34,7.17c-2,1.39-4,2.72-5.79,4.23a14.76,14.76,0,0,1-6.14,2.94c-2.57.61-5.15,1.17-7.71,1.82a10.06,10.06,0,0,0-6,3.62,16.53,16.53,0,0,1-6.48,5.15c-1.26.6-2.54,1.19-3.74,1.89a19.43,19.43,0,0,1-6.72,2.38,79.62,79.62,0,0,1-8.14,1.12,28.92,28.92,0,0,0-4.16.45,7.61,7.61,0,0,0-4.26,2.31,11.93,11.93,0,0,1-4.11,2.92c-1.65.71-3.3,1.43-5,2a44.57,44.57,0,0,1-17,3c-1.29,0-2.59-.14-3.88-.22a9.44,9.44,0,0,0-6.39,1.58,17.19,17.19,0,0,1-7.5,2.77c-2.37.36-4.74.7-7.09,1.11A21.6,21.6,0,0,1,420,855.2a14.11,14.11,0,0,0-6.65-.39,18,18,0,0,0-5.8,1.9,3.35,3.35,0,0,1-1.87.39,22.53,22.53,0,0,0-4.91.42c-1.57.24-3.14.51-4.71.77l-4.19,0c-1.76-.31-3.53-.62-5.3-.91a23.1,23.1,0,0,1-6.93-2.26,6.89,6.89,0,0,0-4.79-.63c-.92.21-1.83.48-2.73.78a18,18,0,0,1-9.73.43,21.62,21.62,0,0,0-5.78-.68,7.63,7.63,0,0,1-2.95-.39c-1.13-.39-2.27-.75-3.37-1.21q-4.27-1.79-8.52-3.63a2.29,2.29,0,0,0-2.28,0,5.08,5.08,0,0,1-3,.65,15,15,0,0,1-2.23-.18c-2.16-.39-4.31-.82-6.46-1.26a53.73,53.73,0,0,1-10.65-3.41,89,89,0,0,1-8.94-4.5,5.48,5.48,0,0,0-3-.78c-1.89.06-3.79,0-5.69,0a11.22,11.22,0,0,1-4.5-1c-2.75-1.17-5.49-2.37-8.2-3.62a25.78,25.78,0,0,1-8-5.46,21.47,21.47,0,0,0-2-1.76,17.91,17.91,0,0,0-11.15-4.11,4.46,4.46,0,0,1-2.28-.63c-1.73-1-3.58-1.75-5.39-2.59A34.41,34.41,0,0,1,245.08,811a13.42,13.42,0,0,0-4.86-3.89,27.73,27.73,0,0,0-2.74-1.2,36.62,36.62,0,0,1-8.57-4.19,14.64,14.64,0,0,0-4-2,5.44,5.44,0,0,1-2.83-2.1c-.27-.36-.52-.73-.8-1.08-1.85-2.41-3.66-4.86-5.58-7.22a25.57,25.57,0,0,0-7.95-6.47,39.19,39.19,0,0,1-4.44-2.77,33.54,33.54,0,0,1-11-12.4c-.6-1.2-1.09-2.45-1.62-3.69a8,8,0,0,0-4-4.29,23.12,23.12,0,0,1-7.76-6.22c-1.31-1.57-2.6-3.15-3.86-4.76a42.32,42.32,0,0,1-5.7-9.28c-.28-.64-.62-1.25-.94-1.87a28.08,28.08,0,0,1-2.38-5.31,4.53,4.53,0,0,0-2.53-3c-.31-.16-.63-.3-.95-.44a8.61,8.61,0,0,1-3.87-3.19,25.07,25.07,0,0,1-1.3-2.18,132.12,132.12,0,0,1-9.62-22.66,8.52,8.52,0,0,0-1.33-2.66c-.48-.64-1-1.26-1.52-1.85a32.46,32.46,0,0,1-4.06-5.73,49.16,49.16,0,0,1-4.51-11.66,70.64,70.64,0,0,1-1.7-9.56,12.83,12.83,0,0,0-2.09-5.68,61.32,61.32,0,0,1-4.19-7.41,28.49,28.49,0,0,1-3.1-14c0-.35,0-.7,0-1.05A30,30,0,0,0,123,628.05c-.46-1-1-2.08-1.53-3.08a12.56,12.56,0,0,1-1.77-7.15,6.93,6.93,0,0,0-.5-2.62c-.14-.43-.31-.84-.47-1.26a6.87,6.87,0,0,1-.34-4.25c.31-1.2.45-2.45.71-3.67.48-2.29,1-4.57,1.5-6.86a7.24,7.24,0,0,0-1-6,13.45,13.45,0,0,1-2.29-5.62A1.29,1.29,0,0,0,117,587c0-.06-.23,0-.35,0v-2.4a7.13,7.13,0,0,0,.45-1.52c.06-1.53,0-3.07,0-4.6a1.76,1.76,0,0,0-.49-1.36ZM150.53,677.7a.37.37,0,0,0,.11.52,13,13,0,0,0,3.5,1.92c1.65.54,3.3,1.11,4.92,1.72,2.56.95,5.19,1.72,7.69,2.84l4.86,2.22a2,2,0,0,0,2-1.72c.65-2.7,1.3-5.4,1.93-8.11a22.34,22.34,0,0,0,.52-4.23c.07-1.44-.09-2.89,0-4.33a24.81,24.81,0,0,0-.59-5.57c-.28-1.41-.73-2.79-1-4.18a38,38,0,0,0-1.42-4.54,42.81,42.81,0,0,0-2.6-5.53,12.38,12.38,0,0,0-2.06-2.91,3.67,3.67,0,0,0-.65-.42c-.16.59-.3,1.06-.43,1.54s-.23,1-.41,1.43c-.43,1.16-.86,2.33-1.37,3.46-1.09,2.4-1.85,4.94-3.1,7.27s-2.46,4.41-3.69,6.62c-.68,1.21-1.36,2.42-2,3.64-.22.38-.38.8-.62,1.18a14.5,14.5,0,0,1-2.31,3.44c-.07.06-.08.18-.13.27l-1.83,3.45-1.18.06a2.13,2.13,0,0,1,.07-1.73c.2-.46.44-.9.68-1.33l5.71-10c.72-1.26,1.43-2.51,2.12-3.78a1.32,1.32,0,0,0-.47-2c-.48-.35-1-.67-1.51-1-1.89-1.1-3.78-2.21-5.68-3.29a89.07,89.07,0,0,1-9.86-6.19c-2-1.53-4.15-2.93-6.22-4.4a22.31,22.31,0,0,1-2.23-1.75c-1.57-1.45-3.09-3-4.64-4.44-.2-.19-.44-.35-.72-.58a3.61,3.61,0,0,0-.2.68,29.58,29.58,0,0,0,.78,11,52.09,52.09,0,0,0,2.45,6.88,46.12,46.12,0,0,0,5.89,10.53,23.52,23.52,0,0,0,7.16,6.45,12.5,12.5,0,0,1,1.9,1.44c1.3,1.08,2.58,2.19,3.88,3.28C149.87,677.68,150.14,678,150.53,677.7Zm26.11-188.07c.14.71.26,1.24.34,1.78a5,5,0,0,1,.08,1.33c-.12.89-.3,1.77-.5,2.64a16.82,16.82,0,0,0-.63,4.58,11.29,11.29,0,0,1-.21,2.08,24.53,24.53,0,0,1-2,6.4c-1.18,2.59-2.64,5-4.06,7.48a24,24,0,0,0-1.26,2.54,7.91,7.91,0,0,0-.51,4.25c.12.84.24,1.68.37,2.52a20.84,20.84,0,0,1-.38,7.13c-.66,3.48-2,6.78-2.94,10.19a11.61,11.61,0,0,1-2.36,4.62,3.36,3.36,0,0,0-.7,3.22c.55,2.08.9,4.19,1.3,6.29a30.46,30.46,0,0,1,.09,9.24c-.23,2-.55,4-.81,5.92a9.88,9.88,0,0,1-1.18,4.42,3,3,0,0,0-.17.41,7.75,7.75,0,0,0-.25,6.24,46.28,46.28,0,0,1,2.32,8.5,34.3,34.3,0,0,1,.4,7.3c-.09,1.64-.19,3.28-.22,4.93a11.5,11.5,0,0,1-.87,4.36,13.24,13.24,0,0,0-.68,2.43,2.9,2.9,0,0,0,.44,2.15,21.19,21.19,0,0,1,1.87,3.9c.27.69.55,1.39.88,2.06a31,31,0,0,1,2.61,8.23c.51,2.65,1,5.3,1.56,7.93a4.48,4.48,0,0,1-.28,3.18,4.63,4.63,0,0,0,0,4.45,20.89,20.89,0,0,0,1.3,2.18,46.06,46.06,0,0,1,7.89,24.12,4.43,4.43,0,0,0,.91,2.63c1.44,1.91,2.86,3.84,4.29,5.75a39.65,39.65,0,0,1,4.44,7.26c.53,1.18,1.15,2.32,1.75,3.47.3.57.67,1.1,1,1.68a8.09,8.09,0,0,1,1.07,4,9.22,9.22,0,0,0,3.08,7.19c1.41,1.34,2.77,2.73,4.2,4.06A28.92,28.92,0,0,1,205,713a51.2,51.2,0,0,1,3.4,8.92,5.4,5.4,0,0,0,2.6,3.3c1.54.91,3,1.9,4.56,2.86a29.92,29.92,0,0,1,9.21,9.26c1.17,1.8,2.29,3.63,3.38,5.47a14.11,14.11,0,0,0,7.24,6.42c.14.05.26.13.4.19a26.22,26.22,0,0,1,6.41,4.08,38,38,0,0,1,6.59,7.12c1.06,1.51,2.09,3,3.14,4.56a6.36,6.36,0,0,0,3.53,2.61c1.24.37,2.47.78,3.68,1.23a27.15,27.15,0,0,1,8.79,5c1.15,1,2.46,1.86,3.71,2.77.84.63,1.7,1.22,2.52,1.87a11.3,11.3,0,0,1,3.47,4.26,2.09,2.09,0,0,0,1.91,1.37c1.39.18,2.76.43,4.13.7a37.4,37.4,0,0,1,10.65,3.83c1.35.74,2.69,1.51,4.06,2.24a22.66,22.66,0,0,1,7,5.32,2.1,2.1,0,0,0,1.84.81,7.43,7.43,0,0,1,1.49,0c1.38.21,2.75.49,4.13.68a36.08,36.08,0,0,0,4,.41,17.59,17.59,0,0,1,6.12,1.29,32.72,32.72,0,0,1,6.26,3.47c1.44,1,2.87,2,4.32,3a8.9,8.9,0,0,0,5.34,1.63c1.85-.07,3.7,0,5.54,0a49.81,49.81,0,0,1,10,.86,33.17,33.17,0,0,1,10.39,3.61,5.31,5.31,0,0,0,4.1.65c3-.69,6.06-1.17,9.1-1.72a6.31,6.31,0,0,1,3.11.12,21,21,0,0,0,5,1,26.8,26.8,0,0,1,10.2,2.68,3,3,0,0,0,2.45.21c1.28-.38,2.59-.7,3.9-1,1.94-.46,3.89-.85,5.82-1.34A33.46,33.46,0,0,1,419,812c1.93.12,3.86.41,5.79.66a10.58,10.58,0,0,0,4-.3,13.7,13.7,0,0,0,3.12-1.41c1.19-.63,2.35-1.31,3.55-1.92a9.34,9.34,0,0,1,3.56-1,44.07,44.07,0,0,0,5.47-.84c.92-.2,1.86-.38,2.79-.54a16.44,16.44,0,0,1,5.51-.11c1.08.18,2.17.32,3.25.48a3.88,3.88,0,0,0,3-.63c.57-.4,1.21-.69,1.81-1a33.1,33.1,0,0,0,3.88-2.53,20,20,0,0,1,7.92-3.73c2-.47,4.1-.85,6.17-1.18a25.37,25.37,0,0,1,7.58-.47,1.6,1.6,0,0,0,1.57-.66,19.94,19.94,0,0,1,5.42-4.64c1.09-.71,2.15-1.46,3.23-2.17s2.4-1.61,3.65-2.34a25.8,25.8,0,0,1,12.61-3.76,3.72,3.72,0,0,0,3-1.47c.25-.31.5-.62.76-.92a51.24,51.24,0,0,1,8.24-8,37.48,37.48,0,0,1,14.75-7.29,4.57,4.57,0,0,0,3.25-2.39,34.84,34.84,0,0,1,3.45-5.07,41.7,41.7,0,0,1,10.4-8.92c2.1-1.34,4.26-2.58,6.44-3.79a4.3,4.3,0,0,0,2.27-2.62,24.32,24.32,0,0,1,1.1-2.78,22.09,22.09,0,0,1,5.86-8.19c.91-.78,1.72-1.67,2.55-2.53,1.07-1.12,2.1-2.28,3.2-3.37a15.72,15.72,0,0,1,5.11-3.57,3.08,3.08,0,0,0,1.87-2c.52-1.56,1.14-3.09,1.64-4.65a40,40,0,0,1,9.4-15.45,13.59,13.59,0,0,0,2.3-2.93,2.08,2.08,0,0,1,1.7-1.28,2.32,2.32,0,0,0,2-1.94c.15-.68.27-1.37.39-2.06a75.47,75.47,0,0,1,4.13-13.87,13.44,13.44,0,0,1,4.34-6.14,11.37,11.37,0,0,0,3.9-6.07,29,29,0,0,0,1-6.2A28,28,0,0,1,617,654a41.41,41.41,0,0,1,6.26-12.84,4.72,4.72,0,0,0,1-3.5c-.17-1.49-.26-3-.32-4.48a41.75,41.75,0,0,1,.79-10.41,33.48,33.48,0,0,1,5.28-12.44,4,4,0,0,0,.69-3.66,36.38,36.38,0,0,1-1.21-5.55c-.22-1.58-.39-3.17-.7-4.73a12.87,12.87,0,0,1,.42-6.49,14.46,14.46,0,0,0,.51-4.89,8.56,8.56,0,0,1,.9-4c.13-.27.29-.52.43-.79a4.86,4.86,0,0,0,.28-4.19,28.14,28.14,0,0,1-1-3.58c-.38-1.6-.84-3.19-1.12-4.8a50.3,50.3,0,0,1-.57-9.09c0-1.6.13-3.19.13-4.78a8.19,8.19,0,0,1,.62-3.05,18.31,18.31,0,0,0,.8-2.71,3.47,3.47,0,0,0-.24-2.2c-1-2.13-2-4.26-3-6.35a19.27,19.27,0,0,1-1.84-4.72c-.38-1.85-.69-3.72-1-5.58-.31-1.62-.56-3.25-1-4.83a5.88,5.88,0,0,1,.3-4.49,3.88,3.88,0,0,0,0-3.48,18.66,18.66,0,0,0-.91-1.71c-1.05-1.81-2.17-3.59-3.14-5.44a43.06,43.06,0,0,1-5.34-19.72,4.31,4.31,0,0,0-.94-2.76c-1-1.21-1.89-2.45-2.81-3.69a45.63,45.63,0,0,1-5-7.47,50.38,50.38,0,0,1-4.64-14,6.47,6.47,0,0,0-2.2-4.13c-.88-.75-1.7-1.55-2.54-2.33a37.35,37.35,0,0,1-7.08-8.46c-.66-1.11-1.42-2.16-2.13-3.25-.49-.75-1-1.49-1.45-2.27a13.49,13.49,0,0,1-2-6.05,1.53,1.53,0,0,0-1.39-1.67,6,6,0,0,1-2.61-1.38,21.21,21.21,0,0,0-3.69-2.54c-.39-.22-.76-.48-1.14-.71a8.13,8.13,0,0,1-2.65-2.6c-1.16-1.74-2.32-3.48-3.52-5.2a63.28,63.28,0,0,1-5.23-8.36,5.15,5.15,0,0,0-2.3-2.27q-2.61-1.45-5.21-2.92a28.28,28.28,0,0,1-6.79-5.11,11.67,11.67,0,0,0-2.79-2.21,13.14,13.14,0,0,1-5.18-5.27c-.09-.17-.2-.34-.3-.51a10.36,10.36,0,0,0-5.82-4.88,41.35,41.35,0,0,1-5.75-2.51,64.42,64.42,0,0,1-8.78-5.94c-1.15-.88-2.23-1.84-3.3-2.82a7.19,7.19,0,0,1-2.47-3.48,1.1,1.1,0,0,0-1.25-.84,7,7,0,0,1-2.92-.59c-2.33-.89-4.77-1.42-7.16-2.1a32.93,32.93,0,0,1-13.13-6.89,18.13,18.13,0,0,0-9.87-4.23c-2.17-.3-4.36-.55-6.49-1a32.09,32.09,0,0,1-10.81-4.61c-1.66-1.1-3.24-2.33-4.83-3.53a2.81,2.81,0,0,0-2.21-.65,51.26,51.26,0,0,1-8.67.33,34.87,34.87,0,0,1-6.37-.77,39.46,39.46,0,0,1-8.65-2.83c-1.31-.61-2.6-1.26-3.89-1.92a4.59,4.59,0,0,0-4.16-.13,20.65,20.65,0,0,1-3,1c-.92.24-1.86.38-2.79.53-1.67.26-3.35.52-5,.73a2.56,2.56,0,0,1-2-.35,5.31,5.31,0,0,0-3.24-.92,12.74,12.74,0,0,1-3-.3,58.72,58.72,0,0,1-8.6-2.5,4.13,4.13,0,0,0-3.34-.13c-.23.09-.48.15-.72.22a80.54,80.54,0,0,1-8.65,2.33,22.74,22.74,0,0,1-6.1.48c-2-.18-4.07-.28-6.12-.27a10,10,0,0,1-3.92-.82,14.81,14.81,0,0,0-1.7-.58,3.34,3.34,0,0,0-3.09.61,35,35,0,0,1-18.9,6.69,83.89,83.89,0,0,1-8.83,0,4.64,4.64,0,0,0-2.81.71,61.07,61.07,0,0,1-9,4.66,44.25,44.25,0,0,1-13.71,3.46c-1.19.09-2.39.15-3.58.17a2.52,2.52,0,0,0-2.25,1.21,19.67,19.67,0,0,1-6.25,5.93,58.37,58.37,0,0,1-9.71,4.95,17.57,17.57,0,0,1-8,1.45,3.27,3.27,0,0,0-3.4,1.6,3.38,3.38,0,0,1-.27.36,47,47,0,0,1-11.54,10.56c-1.64,1-3.35,2-5,2.93a16.18,16.18,0,0,1-6.45,2.2,4,4,0,0,0-3.37,2.19c-.22.44-.52.85-.78,1.27a47.27,47.27,0,0,1-6.73,8.39,11.62,11.62,0,0,1-3,2.23,8.9,8.9,0,0,0-3.07,2.55,8.44,8.44,0,0,1-5.43,3.17,5.15,5.15,0,0,0-1.15.31,1.32,1.32,0,0,0-.89,1.11,6.3,6.3,0,0,1-1.57,3.32,27.47,27.47,0,0,0-1.69,2.46,41.17,41.17,0,0,1-4.83,6.46,91.81,91.81,0,0,1-9.71,9.1,11,11,0,0,0-3.28,4.37,60.63,60.63,0,0,1-4.16,8.44c-1.08,1.79-2.25,3.53-3.41,5.27-.85,1.29-1.72,2.57-2.64,3.81a11,11,0,0,1-3.65,3.27,7.18,7.18,0,0,0-3.74,5.78c-.11.84-.21,1.68-.31,2.52a29.74,29.74,0,0,1-2.84,9.4,41.17,41.17,0,0,1-7.54,10.54A6.36,6.36,0,0,1,176.64,489.63ZM339.42,809.9a6.82,6.82,0,0,0,.57.89c1.44,1.71,2.89,3.42,4.35,5.11a30.25,30.25,0,0,1,3.5,4.84c1.22,2.15,2.47,4.3,3.64,6.48.83,1.53,1.55,3.12,2.33,4.68a13.4,13.4,0,0,0,1.17,2.22c.71.92,1.09,2,1.7,3a13.61,13.61,0,0,0,2.45,3.15,1.43,1.43,0,0,0,1.08.38,2.5,2.5,0,0,0,1.61-.68,18,18,0,0,0,1.4-1.36,7.82,7.82,0,0,1,1.7-1.44c1.58-1,3.18-2,4.68-3.2,2.53-1.93,5.09-3.81,7.46-5.94a16,16,0,0,0,1.37-1.36.69.69,0,0,0-.1-1c-.39-.38-.81-.74-1.19-1.13a70.39,70.39,0,0,0-7.73-6.81,24.14,24.14,0,0,0-3.68-2.51c-1.51-.75-3-1.54-4.53-2.24a34.11,34.11,0,0,0-5.24-1.71c-1.48-.4-3-.73-4.49-1.07a17.73,17.73,0,0,0-5.43-.64c-.34,0-.69,0-1,0a8.13,8.13,0,0,0-1.64.07,4.77,4.77,0,0,1-2.06,0A2,2,0,0,0,339.42,809.9Zm-114.07-395a6.16,6.16,0,0,0-3.24,0,7.86,7.86,0,0,0-1.15.32,16.89,16.89,0,0,1-5.42.81H192.79a3,3,0,0,1-.9,0,5,5,0,0,0-2.34,0,2.53,2.53,0,0,0-2.36,2.56c0,.65,0,1.29,0,1.92a8.84,8.84,0,0,0,.55,2c.2.72.38,1.44.53,2.17a11,11,0,0,1,.18,1.62,17.72,17.72,0,0,0,0,1.78c.19,1.28.45,2.54.73,3.8a18.22,18.22,0,0,1,.54,3.18,14.34,14.34,0,0,0,.18,2.07,2.35,2.35,0,0,0,2.08,2.15,3.31,3.31,0,0,0,1.33.07c1-.19,2.07-.25,3.07-.5a31,31,0,0,0,4.54-1.4,37.66,37.66,0,0,0,4.18-1.95c1.23-.73,2.52-1.39,3.68-2.22a57.11,57.11,0,0,0,7-5.77c1.49-1.47,3-2.95,4.3-4.55a50.84,50.84,0,0,0,4.66-6.55C224.94,415.9,225.11,415.43,225.35,414.91Zm435.2,165.81c-.27-.29-.4-.44-.54-.57a103.67,103.67,0,0,1-8.69-8.85c-1.75-2-3.44-4-5.18-6a8.82,8.82,0,0,0-1.29-1.23,1,1,0,0,0-1.36.16,3.31,3.31,0,0,0-.6.84,21.17,21.17,0,0,1-3.74,5.2,31.44,31.44,0,0,0-6.9,13.24c-.66,2.46-1.07,5-1.53,7.46a14.33,14.33,0,0,0,.45,7.65,8.77,8.77,0,0,1,.51,4.84,2.06,2.06,0,0,0,0,.89.79.79,0,0,0,1.19.45,5.17,5.17,0,0,0,.56-.49,23.34,23.34,0,0,0,3.49-3.88,24.52,24.52,0,0,1,5.42-5.53q5.46-4,10.92-8.1c1.71-1.28,3.39-2.61,5.07-3.94A17.72,17.72,0,0,0,660.55,580.72ZM232.23,750.13a7.45,7.45,0,0,0-.19,2.25c.24,1.06.18,2.13.43,3.18s.32,2.15.49,3.22a17.75,17.75,0,0,1,.44,5.72,4,4,0,0,0,0,.6c0,6,0,12,0,17.95a12.53,12.53,0,0,1,.11,2.81c-.15.71.74,1.48,1.51,1.49a19.4,19.4,0,0,0,3.8-.35c1.12-.19,2.24-.41,3.36-.57a11.12,11.12,0,0,1,2.62-.24c1.35.11,2.66-.48,4-.11,0,0,.09,0,.14,0a18.77,18.77,0,0,1,2.32-.33,19,19,0,0,0,3.78-.55,2.67,2.67,0,0,0,2-.9,11.69,11.69,0,0,0-.3-1.5c-.61-2-1.05-4-1.79-6-.6-1.57-1.1-3.19-1.72-4.76a42.07,42.07,0,0,0-2.19-4.66,45.8,45.8,0,0,0-4.6-7,37.6,37.6,0,0,0-7.18-6.68c-1.62-1.17-3.41-2.05-5.1-3.09A2.83,2.83,0,0,0,232.23,750.13ZM626.08,636.52a7.4,7.4,0,0,0,.78-.58c.85-.83,1.67-1.71,2.54-2.53a29.47,29.47,0,0,1,5.2-4.24,25.33,25.33,0,0,0,3.55-2.47c.76-.63,1.58-1.21,2.4-1.78a12.76,12.76,0,0,1,2-1.23c1.12-.51,2.22-1,3.32-1.61C648,621,650,619.82,652,618.63a18.58,18.58,0,0,1,3.69-2A4.13,4.13,0,0,0,657,616a1.55,1.55,0,0,0,.57-.84,2,2,0,0,0-.2-1.58c-.42-.62-.74-1.3-1.16-1.91-1.74-2.55-3.73-4.92-5.63-7.35-1.41-1.79-2.79-3.61-4.19-5.42-.52-.67-1-1.34-1.59-2s-.75-.51-1.29-.1a9.47,9.47,0,0,0-1.12,1c-1.13,1.19-2.31,2.33-3.42,3.54a63.61,63.61,0,0,0-4.65,5.6q-1.51,2.11-2.9,4.34c-.76,1.22-1.47,2.48-2.11,3.77a11.19,11.19,0,0,0-1.1,2.92c-.22,1.22-.48,2.43-.74,3.64a22.42,22.42,0,0,1-.9,3.61,5,5,0,0,0-.25,1,16.09,16.09,0,0,0-.3,4c0,.49,0,1-.05,1.49A25.34,25.34,0,0,0,626.08,636.52ZM567.52,743.19a9.65,9.65,0,0,0,3.56-.4,14.83,14.83,0,0,1,6.27-.94c.84,0,1.68.17,2.52.19,2,.06,4.08.1,6.13.1,3.48,0,7-.06,10.46-.09h4.63a10.45,10.45,0,0,0,1.48-.15,2.31,2.31,0,0,0,2.18-2.25,11.88,11.88,0,0,0-.21-3.85c-.27-.95-.51-1.92-.74-2.88a6.35,6.35,0,0,1-.35-1.88c.08-.77-.21-1.46-.19-2.21a11.23,11.23,0,0,0-.24-2.3,39,39,0,0,0-1.58-6.92.88.88,0,0,0-.86-.68c-.78,0-1.57-.35-2.33.09a17.84,17.84,0,0,0-4.64.8,20.3,20.3,0,0,0-8.09,4,21.56,21.56,0,0,1-2.1,1.43c-1.08.71-2.24,1.32-3.26,2.1a48.35,48.35,0,0,0-5.52,4.79,31.86,31.86,0,0,0-4.34,5.49c-.63,1-1.1,2.12-1.7,3.14A25.13,25.13,0,0,0,567.52,743.19Zm-374.8-41.37c0,.58,0,.87,0,1.17a11.31,11.31,0,0,1,.1,2.65c-.24,1.16-.28,2.34-.55,3.48-.5,2.07-1.06,4.13-1.51,6.22a38.39,38.39,0,0,0-1.17,5.07c-.79,2.47-1.16,5-1.73,7.55-.37,1.6-.73,3.19-1.12,4.79-.3,1.2-.64,2.4-.94,3.6a4.4,4.4,0,0,0-.08.89,1.3,1.3,0,0,0,1.28,1.52,10.62,10.62,0,0,0,1.78,0,5.21,5.21,0,0,1,.87-.08c.64.08,1.26.22,1.89.33l4.68.83a18.58,18.58,0,0,0,3.35.5,12.51,12.51,0,0,0,2.66.11,18.62,18.62,0,0,1,4.85,1.3,1.17,1.17,0,0,0,1.82-.86,17.52,17.52,0,0,0,.37-3.05,21,21,0,0,0-.07-2.24c0-.79.11-1.59.06-2.38a28.63,28.63,0,0,0-.34-3.06,37.16,37.16,0,0,0-2.35-8.89c-.74-1.73-1.52-3.46-2.21-5.21a28.8,28.8,0,0,0-2.22-4.36,27.17,27.17,0,0,0-5.21-6.67c-1-.88-2-1.75-3.08-2.6A6.88,6.88,0,0,0,192.72,701.82ZM633.48,573.7a2.68,2.68,0,0,0,.45-.32,6.24,6.24,0,0,0,.53-.71,72.83,72.83,0,0,1,6-7.94c1.87-2.15,3.89-4.15,5.9-6.14,1-1,2-2,3-3,2-2,4.08-4,6.09-6,.95-.94,1.81-2,2.7-2.94a3.82,3.82,0,0,0-1.15-1.47,54,54,0,0,0-4.94-3.84c-1.15-.87-2.32-1.71-3.43-2.63-1.37-1.15-2.66-2.4-4-3.53a17.52,17.52,0,0,0-3.66-2.55c-1-.43-1.16-.43-1.81.29-.13.15-.23.32-.35.48a38.06,38.06,0,0,0-5.48,9.85,39.15,39.15,0,0,0-2,7.15,32.74,32.74,0,0,0-.84,6.15,1.52,1.52,0,0,1-.13.58,2.09,2.09,0,0,0,0,1.31,3.64,3.64,0,0,1,.1,1c0,.59-.17,1.19-.15,1.78s.17,1.16.23,1.75c.14,1.32.18,2.66.41,4a25,25,0,0,0,2,5.9A4,4,0,0,0,633.48,573.7ZM394.41,844.63a2.06,2.06,0,0,0,.45-.26c1.14-1.18,2.32-2.33,3.4-3.57,1.68-1.91,3.3-3.86,4.92-5.82a44.86,44.86,0,0,1,5.68-5.93,11.6,11.6,0,0,0,1.12-1.2,2,2,0,0,0-.12-2.71,12.25,12.25,0,0,0-1.73-1.41c-2.1-1.35-4.2-2.68-6.34-4a40.76,40.76,0,0,0-15.12-5.29c-2.36-.35-4.72-.76-7.08-1.12a8.57,8.57,0,0,0-3.42.07,21,21,0,0,1-5.59,1.15,2.83,2.83,0,0,0,.94,1.43c2,2.1,4,4.2,6,6.25a50,50,0,0,1,6.44,7.65c.42.62.87,1.22,1.32,1.81,1.53,2,3.09,3.92,4.61,5.89a39.74,39.74,0,0,1,4.07,6.26C394.09,844.12,394.25,844.36,394.41,844.63ZM187.11,465.25c-.74-.38-1.29,0-1.88.28-1.65.78-3.16,1.82-4.87,2.53a58.09,58.09,0,0,1-8.19,2.69c-1.3.32-2.64.51-3.94.82-3.09.71-6.12,1.7-9.23,2.35-1.55.32-3.08.73-4.66.91-1.08.12-1.54.59-1.41,1.7.21,1.64.16,3.35,1.25,4.81a10.38,10.38,0,0,1,1,2.14c.59,1.36,1.15,2.74,1.74,4.1.87,2,1.75,4,2.62,6,.06.14.07.29.12.43a13.75,13.75,0,0,0,1.42,2.61,2,2,0,0,0,1.32.89c.66-.44,1.4-.93,2.15-1.41,1-.64,2-1.33,3-1.92a26.7,26.7,0,0,0,4.17-2.6c1.45-1.21,2.87-2.46,4.3-3.69.91-.78,1.81-1.57,2.74-2.31a8.19,8.19,0,0,0,2.3-2.5c.42-.79.77-1.62,1.15-2.43a9.2,9.2,0,0,1,.67-1.33,38.24,38.24,0,0,0,2.92-5.33,27.26,27.26,0,0,0,1.46-5.11c.08-.33,0-.71.08-1A2.72,2.72,0,0,0,187.11,465.25Zm-28.9,117.84a7.73,7.73,0,0,1-2.36,4.44,29.11,29.11,0,0,0-2.64,3.42,52.11,52.11,0,0,1-4.19,5.61,4.64,4.64,0,0,1-.66.59c-1.16.93-2.36,1.82-3.48,2.8a32.42,32.42,0,0,0-3.32,3.21c-.58.67-1.27,1.25-1.89,1.89-1.25,1.28-2.49,2.57-3.74,3.84a5.77,5.77,0,0,0-1.64,2.38,4.8,4.8,0,0,0,1.57,2.21q4.13,3.19,8.23,6.41c1.83,1.44,3.63,2.92,5.46,4.36q.94.74,1.95,1.38a.74.74,0,0,0,1.06-.21c.49-.62,1-1.26,1.45-1.9a29.07,29.07,0,0,0,4-6.63c.3-.74.58-1.49.83-2.24a37.79,37.79,0,0,0,1.63-6.16c.3-1.9.65-3.79.85-5.69a8.4,8.4,0,0,0,.25-1.9,16.63,16.63,0,0,1,0-5,1.31,1.31,0,0,0,0-.44,18,18,0,0,1-.39-2.17,39.34,39.34,0,0,0-1.74-8.11A5,5,0,0,0,158.21,583.09Zm473,77.34a5.91,5.91,0,0,0-2,.29,7,7,0,0,0-1.93,1.09c-1.72,1-3.43,2-5.07,3.13-1.44,1-2.83,2-4.17,3.13a39.59,39.59,0,0,0-5.26,4.85,24.69,24.69,0,0,0-4.18,7l-1.56,3.88c-.22.55-.46,1.1-.64,1.66a22.92,22.92,0,0,0-.68,2.28c-.26,1.11-.46,2.24-.68,3.36a1.38,1.38,0,0,0,0,.44.68.68,0,0,0,.72.61,3.12,3.12,0,0,0,.44,0,15.7,15.7,0,0,0,4.35-1.51,35.61,35.61,0,0,1,5.65-2.26c2-.68,4.13-1.12,6.2-1.65,1.92-.5,3.87-.93,5.77-1.49,2.52-.74,5.06-1.43,7.63-2a7,7,0,0,1,1.44-.17,1.76,1.76,0,0,0,1.84-2.34c-.36-1.28-.76-2.57-1.21-3.83-.35-1-.79-1.93-1.21-2.88a84.67,84.67,0,0,1-3.92-10.93A5,5,0,0,0,631.23,660.43Zm-95.6-287.18a3.72,3.72,0,0,0-.14,2.15,50.91,50.91,0,0,0,2.58,9.3c1,2.74,2.28,5.4,3.46,8.07a10.4,10.4,0,0,0,4.64,5.28,5.42,5.42,0,0,1,.87.57c1.47,1.19,3,2.32,4.37,3.6a33.7,33.7,0,0,0,6.89,4.64.79.79,0,0,0,1.23-.57,14.18,14.18,0,0,0,0-4.41c-.19-1-.55-1.92-.7-2.9-.13-.81-.58-1.6-.23-2.46a1.14,1.14,0,0,0,0-.45,18.06,18.06,0,0,1-.17-2.06c.09-4-.1-8.06.17-12.09.2-3.17-.06-6.36-.15-9.54a1.48,1.48,0,0,0-.35-.79,1.84,1.84,0,0,0-1.37-.79,9.71,9.71,0,0,0-1.94-.06c-1.67.18-3.34.39-5,.7a30,30,0,0,1-6.19.55,27.34,27.34,0,0,0-3.26.13A18.33,18.33,0,0,0,535.63,373.25ZM273.74,375.4a1.65,1.65,0,0,0-.42-.13h-6.13a21,21,0,0,1-3-.07,66.08,66.08,0,0,1-9.83-2.17c-1.1-.33-2.19-.67-3.3-1-2-.55-3.94-1-5.9-1.61-2.28-.66-4.56-1.36-6.83-2.08a3.11,3.11,0,0,0-1.45-.13c-.68.11-1,.36-1,1s0,1.49-.06,2.23a13.62,13.62,0,0,1-.34,3.24,38.94,38.94,0,0,0-1,7.6c0,.09,0,.22,0,.28.44.59.09,1.26.2,1.85a4.44,4.44,0,0,1-.3,2.15c-.35,1.28-1.06,2.48-.75,4a2.59,2.59,0,0,0,.36.31,7.3,7.3,0,0,0,2.84.61,4,4,0,0,1,1,0,11.1,11.1,0,0,0,5,0,1.86,1.86,0,0,1,.74,0,7.89,7.89,0,0,0,2.61-.19,34.07,34.07,0,0,0,4.23-.75,26.83,26.83,0,0,0,3.15-.89,45.91,45.91,0,0,0,7.63-3.3,41.42,41.42,0,0,0,6.13-4.18c1.21-1,2.34-2.16,3.48-3.27.82-.79,1.61-1.62,2.4-2.44A1.47,1.47,0,0,0,273.74,375.4ZM159.59,552.76a2.42,2.42,0,0,0-.61.42c-.41.55-.81,1.13-1.17,1.71a10.71,10.71,0,0,1-1.85,2.52c-3.1,2.74-6.21,5.47-9.56,7.9-2.82,2.05-5.67,4.07-8.47,6.14-1.56,1.15-3.06,2.39-4.58,3.61a5.69,5.69,0,0,0-1,.94,1.49,1.49,0,0,0,0,2,6.37,6.37,0,0,0,.6.67l2.64,2.65,11.11,11.09a9.71,9.71,0,0,0,.88.81.78.78,0,0,0,1.19-.09,6.51,6.51,0,0,0,.46-.58c.78-1,1.56-2.07,2.33-3.11.62-.84,1.29-1.65,1.85-2.53a59.43,59.43,0,0,0,5-9.82,40.71,40.71,0,0,0,2.24-7.73,46.74,46.74,0,0,0,.61-9.08,23.42,23.42,0,0,0-.68-4.87A8.45,8.45,0,0,0,159.59,552.76Zm510.9,40.15c.3-.89.54-1.59.78-2.28.61-1.79,1.27-3.56,1.84-5.36a11.81,11.81,0,0,0,.24-7.2c-.16-.53-.29-1.06-.41-1.59a9.76,9.76,0,0,1-.28-4,9.09,9.09,0,0,0-.1-2.38,16.31,16.31,0,0,0-1.63-4.94,78.11,78.11,0,0,0-6.56-11.71c-1.11-1.66-2.23-3.31-3.39-4.93-.53-.76-1.06-.8-1.77-.25a4.18,4.18,0,0,0-.44.4l-12.1,12a7.69,7.69,0,0,0-.61.66.93.93,0,0,0,.06,1.45,3.08,3.08,0,0,0,.33.3,28.85,28.85,0,0,1,4.89,5.23,69,69,0,0,0,8.15,8.93c1.46,1.36,2.87,2.77,4.2,4.25A36,36,0,0,1,670,591.8C670.09,592.12,670.25,592.41,670.49,592.91Zm-46-80c.19-.66.32-1,.41-1.41a53.74,53.74,0,0,1,1.65-5.42c.5-1.4,1-2.81,1.46-4.23.74-2.28.42-2.2,2.65-3.77a4.82,4.82,0,0,0,1.94-2.56,5.05,5.05,0,0,1,.37-1c1.24-2.31,2.48-4.62,3.76-6.91,1.14-2,2.31-4.07,3.51-6.07a2.64,2.64,0,0,0,.35-2.28,3.09,3.09,0,0,0-2-1.06,9.65,9.65,0,0,1-3-1c-1.49-.68-3-1.34-4.51-2-1.85-.75-3.72-1.44-5.6-2.09s-3.45-1.3-5.17-1.95c-.57-.21-.86-.09-1,.45s-.24.87-.4,1.29c-.54,1.44-1.08,2.89-1.65,4.32a25.91,25.91,0,0,0-1.61,8.29c-.06,1.24.37,2.47.08,3.71a2.65,2.65,0,0,1,.14,1.31,8.29,8.29,0,0,0,.18,1.3,65.15,65.15,0,0,0,3.22,12.38c.4,1.11,1,2.13,1.53,3.22a22.21,22.21,0,0,0,2.6,4.17C623.59,512.05,624,512.38,624.44,512.92ZM209.75,402.54h0v6.88c0,.85,0,1.7,0,2.55,0,1.49.42,1.91,1.92,2.12a4.66,4.66,0,0,0,2.47-.42,5.58,5.58,0,0,1,2.9-.54,13.52,13.52,0,0,0,4.16-.28A22.86,22.86,0,0,0,226,411.3a64.33,64.33,0,0,0,9.19-4.64,37.89,37.89,0,0,0,11-11.08,6.47,6.47,0,0,0,.45-.77.71.71,0,0,0-.34-1,2.11,2.11,0,0,0-1.74-.05,13.49,13.49,0,0,1-5.75.57l-2.09-.22c-2-.21-4-.34-5.94-.65-2.71-.42-5.4-1-8.09-1.46a40,40,0,0,0-7.87-.76,4.61,4.61,0,0,1-1.76-.28,7.9,7.9,0,0,0-1.59-.41,1.23,1.23,0,0,0-1.47.95,5.35,5.35,0,0,0-.26,1.47C209.74,396.16,209.75,399.35,209.75,402.54Zm375.87,13.18a1.75,1.75,0,0,0-1.41,1.77,13.1,13.1,0,0,1-.62,3.06,11.21,11.21,0,0,0-.5,4.23c.09.79-.06,1.6,0,2.38a32.23,32.23,0,0,0,.72,3.8c.61,2.3,1.37,4.57,1.95,6.89a12.24,12.24,0,0,0,2.13,4.38c.71,1,1.36,2,2,3,.55.82,1.06,1.67,1.66,2.46a54.06,54.06,0,0,0,6,6.68,2.64,2.64,0,0,0,1.53.87c0-.26,0-.45,0-.65a26.1,26.1,0,0,1,.29-5.15c.42-2,.82-4,1.29-6,.64-2.71,1.33-5.4,2-8.1.35-1.44.68-2.9,1-4.34s.79-3,1.17-4.48c.43-1.73.82-3.48,1.23-5.22a15.09,15.09,0,0,0,.36-1.75c.12-1-.4-1.39-1.43-1.25a5.33,5.33,0,0,1-1.49.05c-1.61-.24-3.22-.55-4.83-.82a20.06,20.06,0,0,1-2.19-.39,4,4,0,0,0-1.74-.09c-1-.53-1.94.19-2.9-.08a4.05,4.05,0,0,1-3-.15C587.78,416.46,586.66,416.07,585.62,415.72ZM432.56,813.78c.79.37,1.58.67,2.3,1.08s1.49,1,2.22,1.53a21.07,21.07,0,0,0,3.2,1.9,38.92,38.92,0,0,1,9.58,6.32c1.12,1,2.28,1.94,3.44,2.89a80.4,80.4,0,0,1,6.31,5.5,7.47,7.47,0,0,0,1.29,1,2.39,2.39,0,0,0,3-.26,8.42,8.42,0,0,0,1.22-1.5,20.28,20.28,0,0,0,1-1.84l6.71-13c.21-.4.43-.79.6-1.21A1.75,1.75,0,0,0,473,814a14.85,14.85,0,0,0-1.19-.9,21.17,21.17,0,0,0-7.73-3.08c-2.88-.55-5.79-1-8.69-1.46a14.29,14.29,0,0,0-2.83-.28,31.64,31.64,0,0,0-4,.48,55.39,55.39,0,0,1-7.25,1,10.81,10.81,0,0,0-2.62.54c-2.19.63-4,2-5.94,3.12C432.65,813.47,432.62,813.66,432.56,813.78ZM278.77,372.44c.68-.07,1.62-.15,2.55-.29a22.16,22.16,0,0,0,5.41-1.66c2.21-.93,4.39-1.89,6.66-2.65a7.15,7.15,0,0,0,1.92-1.12,15.78,15.78,0,0,0,1.53-1.42,12.46,12.46,0,0,1,3.76-2.92,1.25,1.25,0,0,0,.24-.16,1,1,0,0,0,.39-1.05.82.82,0,0,0-.84-.51c-1.09,0-2.19-.05-3.29,0a10.84,10.84,0,0,1-4.11-.54c-3.45-1.16-6.78-2.61-10.13-4s-6.72-2.77-10.11-4.09a25.42,25.42,0,0,1-5.18-2.28,2.57,2.57,0,0,0-.52-.27,1.84,1.84,0,0,0-2.77,1.49,6.21,6.21,0,0,0-.13.73,26.28,26.28,0,0,1-.31,2.67c-.82,3.75-1.69,7.48-2.53,11.22-.4,1.75-.81,3.5-1.17,5.25-.17.83,0,1.11.82,1.28l4.81,1.08a7.7,7.7,0,0,0,3.41.11,3,3,0,0,1,1,0,10.56,10.56,0,0,0,3.41-.24A15.57,15.57,0,0,1,278.77,372.44ZM380.62,853.29a5.44,5.44,0,0,0,2.27.85c1,.16,2,.35,2.92.59,1.35.34,2.68.76,4,1.08a17,17,0,0,0,7.7,0,28.73,28.73,0,0,1,4.86-.76,28.12,28.12,0,0,0,7.88-1.56A80.59,80.59,0,0,0,418,850a16.1,16.1,0,0,0,4.38-3.07,17.82,17.82,0,0,1,3.92-3.21,3,3,0,0,0,.38-.24,1.24,1.24,0,0,0,.26-1.94,3.32,3.32,0,0,0-.38-.46c-.83-.86-1.61-1.78-2.51-2.55-1.59-1.36-3.25-2.63-4.9-3.93A26,26,0,0,1,414,829.5a2,2,0,0,0-.3-.34,1.45,1.45,0,0,0-2.13-.23,7,7,0,0,0-1.12,1c-1.48,1.56-3,3.1-4.4,4.69q-4.25,4.73-8.44,9.5a14.36,14.36,0,0,1-5.21,3.67c-1.23.54-2.45,1.1-3.67,1.65l-7.76,3.51C380.85,853,380.81,853.07,380.62,853.29ZM309.11,800c.86,1.18,1.69,2.35,2.56,3.49.7.91,1.44,1.79,2.17,2.67a13,13,0,0,1,2.45,4.59,61.36,61.36,0,0,0,3.65,9.31c.24.49.44,1,.64,1.51.9,2.38,1.76,4.77,2.7,7.12.54,1.34,1.16,2.65,1.82,3.94.36.7.77.79,1.49.52a6.27,6.27,0,0,0,1-.43c2-1.09,3.93-2.16,5.86-3.3a68.69,68.69,0,0,1,6.9-3.87,38.71,38.71,0,0,0,4.43-2.77,1.31,1.31,0,0,0,.47-1.95,3.84,3.84,0,0,0-.32-.5c-1.62-2.16-3.2-4.33-4.86-6.45a19.51,19.51,0,0,0-4.26-3.95c-1-.68-2-1.34-2.94-2.07a51.48,51.48,0,0,0-9.9-5.81,16.31,16.31,0,0,0-7.84-1.59,7.8,7.8,0,0,1-2.64-.35c-.62-.18-1.25-.34-1.88-.46A1.63,1.63,0,0,0,309.11,800ZM422.17,343.22c-.28-.24-.43-.35-.55-.48-2.33-2.31-4.75-4.55-7-7-1.8-2-3.38-4.18-5-6.31a83,83,0,0,0-6.64-7.87,19.67,19.67,0,0,1-4.06-5.51,3.32,3.32,0,0,0-.59-.85.85.85,0,0,0-1.21-.16,13.66,13.66,0,0,0-1.59,1.35c-.85.84-1.63,1.75-2.48,2.59l-10.22,10.07a9.78,9.78,0,0,0-1.1,1.22,1.54,1.54,0,0,0,.18,2.27,6.53,6.53,0,0,0,1.19.9q5.82,3.5,11.67,7a12.19,12.19,0,0,0,3.7,1.56c1.8.38,3.62.67,5.43,1a35.91,35.91,0,0,1,5.52,1.27,9.37,9.37,0,0,0,4.42.49,26.66,26.66,0,0,0,2.63-.54,20.09,20.09,0,0,1,5-.81A3.59,3.59,0,0,0,422.17,343.22ZM454,348.14c-.34-.4-.54-.68-.78-.92-2.6-2.61-5.21-5.22-7.79-7.85a6.17,6.17,0,0,1-1.06-1.43c-.48-.87-.89-1.77-1.31-2.67a75.08,75.08,0,0,0-3.68-6.63l-5.14-8.72c-.38-.63-.7-1.31-1.12-1.92-.9-1.31-1.32-1.36-2.48-.38l-5,4.24q-3.53,3-7.07,5.95a9.27,9.27,0,0,1-2.83,1.88,2.48,2.48,0,0,0-1.47,1.2c0,1.42,0,1.42,1,2.3.22.2.42.42.65.61a3,3,0,0,1,1,1.32,7.12,7.12,0,0,0,1.36,2.12,8.4,8.4,0,0,0,4,2.75,2.82,2.82,0,0,1,.81.36,14.28,14.28,0,0,0,2.91,1.49c1.7.72,3.26,1.69,5,2.42a44.92,44.92,0,0,0,7.43,2.62c1.3.3,2.64.45,3.94.76,1.53.37,3.13.24,4.64.7,1.11-.36,2.16.16,3.23.22A7,7,0,0,0,454,348.14ZM161.38,615.4c-.07,0-.15,0-.16,0a9.09,9.09,0,0,0-.52.9,40.82,40.82,0,0,1-8.87,13.19,5.66,5.66,0,0,0-.69.78q-4.32,5.91-8.62,11.84a12.56,12.56,0,0,0-.9,1.38,2.37,2.37,0,0,0,.65,3.43,9.85,9.85,0,0,0,1.48,1q7.45,4.27,14.93,8.52c.26.15.54.25.8.39a1,1,0,0,0,1.13-.08,6.33,6.33,0,0,0,.69-.57,4.27,4.27,0,0,0,1.18-2.68,7.06,7.06,0,0,1,.77-2.25,23.62,23.62,0,0,0,2.22-6.64c.58-2.93,1.07-5.87,1.61-8.81a3.82,3.82,0,0,0-.23-2.19,15,15,0,0,1-.86-2.69,23.7,23.7,0,0,1-.43-3.56,15.06,15.06,0,0,0-1.3-5.34C163.32,619.85,162.36,617.66,161.38,615.4Zm330,181h1.09a9.52,9.52,0,0,1,3,.23,72.82,72.82,0,0,1,13.93,5.3c1.6.81,3.24,1.54,4.88,2.26,3.33,1.44,6.68,2.85,10,4.26a7.47,7.47,0,0,0,1.12.4,1.57,1.57,0,0,0,2-.88,8.61,8.61,0,0,0,.52-1.39c.81-2.62,1.47-5.27,2-7.95.68-3.27,1.79-6.43,2.32-9.73a9.22,9.22,0,0,0,.25-2.62,1.49,1.49,0,0,0-.48-.16,10.79,10.79,0,0,1-4.09-.72,12.69,12.69,0,0,0-4.56-.64c-2,.11-4.07.32-6.1.58a55,55,0,0,1-7.12.77,3.5,3.5,0,0,0-1.45.28c-2.65,1.14-5.35,2.17-8,3.38A28.84,28.84,0,0,0,492.6,795C492.25,795.37,491.93,795.73,491.33,796.35ZM360.23,343.87a3.6,3.6,0,0,0-.47-.31,56.07,56.07,0,0,1-7.94-3.79,82.78,82.78,0,0,1-13.15-9.32c-1.73-1.49-3.47-3-5.22-4.47a11.26,11.26,0,0,0-3-2,2.45,2.45,0,0,0-3.19.77,8.66,8.66,0,0,0-1.1,1.76c-2.42,4.86-4.81,9.73-7.21,14.6a5.28,5.28,0,0,0-.29.69,1.44,1.44,0,0,0,.56,1.95,7.47,7.47,0,0,0,.74.51,28,28,0,0,0,6,2.93,43.31,43.31,0,0,0,8.72,1.95,28.78,28.78,0,0,0,8.34,0,31.27,31.27,0,0,1,3.85-.43,16.71,16.71,0,0,0,6.1-1.34c2.32-1,4.61-2.12,6.91-3.19C360,344.13,360.08,344,360.23,343.87Zm304,177c.11-.56.19-.84.22-1.13a33.88,33.88,0,0,0-.55-11c-.55-2.33-1.1-4.65-1.66-7a8.35,8.35,0,0,0-1.45-3.09c-2.62-3.51-5.21-7.06-8-10.41A19.75,19.75,0,0,0,648,484a11.39,11.39,0,0,1-2.77-2.26,6.47,6.47,0,0,0-.76-.72,1.16,1.16,0,0,0-1.9.26c-.28.42-.48.88-.72,1.31-1.18,2.2-2.36,4.39-3.56,6.57-.79,1.44-1.66,2.84-2.41,4.3s-1.52,3.14-2.22,4.73c-.35.82-.18,1.12.62,1.55a13.43,13.43,0,0,1,1.8,1.05,22.28,22.28,0,0,0,4.08,2.47c.94.46,1.86,1,2.78,1.47a83.21,83.21,0,0,1,20.49,15.37C663.6,520.28,663.83,520.46,664.24,520.83ZM174.3,492.75a3.35,3.35,0,0,0-.48.38,9.62,9.62,0,0,1-3.11,2.29c-.85.41-1.72.78-2.55,1.24a19.15,19.15,0,0,0-2.68,1.63,23.12,23.12,0,0,1-6.83,3.62c-1.64.58-3.32,1.08-5,1.69-3.64,1.36-7.26,2.76-10.88,4.16a4,4,0,0,0-1.14.69,1.28,1.28,0,0,0-.31,1.63,2.55,2.55,0,0,0,.39.63,6.87,6.87,0,0,1,1.4,2.62,16.42,16.42,0,0,0,1.6,3.19c2.2,3.57,4.38,7.14,6.58,10.7a7.31,7.31,0,0,0,.58.87,1.36,1.36,0,0,0,1.73.43,3.72,3.72,0,0,0,.64-.38c1.88-1.32,3.77-2.62,5.62-4a21.77,21.77,0,0,0,5.52-5.84c.48-.76,1-1.49,1.49-2.24a52.74,52.74,0,0,0,4.7-8.48,25.34,25.34,0,0,0,2.07-8.38,10.5,10.5,0,0,1,.83-3.91,3.61,3.61,0,0,0,.24-.87A2,2,0,0,0,174.3,492.75ZM587.83,719.39a4.58,4.58,0,0,0,.69-.18c.62-.31,1.23-.65,1.85-1a18.49,18.49,0,0,1,10.08-2.17,31.12,31.12,0,0,0,3.74,0,11.71,11.71,0,0,0,2.2-.34,73.22,73.22,0,0,1,7.6-1.58c1.63-.2,3.27-.35,4.9-.55a12.84,12.84,0,0,0,2.78-.48c2-.74,2.59-2.21,1.81-4a17.54,17.54,0,0,1-.93-3.13c-1-4.56-2.08-9.12-3.12-13.68-.38-1.66-.58-2-2.62-1.7a3.78,3.78,0,0,0-1,.3c-.64.27-1.28.56-1.9.87a20.59,20.59,0,0,1-3.44,1.42,21.19,21.19,0,0,0-7.27,3.73c-1.64,1.29-3.21,2.68-4.8,4A13.09,13.09,0,0,0,596,703.8a28.78,28.78,0,0,1-1.88,2.51,19.17,19.17,0,0,0-3,4.94c-1,2.48-2,5-3.06,7.46A6.79,6.79,0,0,0,587.83,719.39Zm29.39-53.9c.63-.11.91-.56,1.25-.89a11.16,11.16,0,0,1,2.63-2c1.45-.77,2.89-1.56,4.33-2.35,4.73-2.57,9.66-4.72,14.6-6.84,2.69-1.16,5.35-2.41,8-3.65a7.52,7.52,0,0,0,1.63-1,1.44,1.44,0,0,0,.39-1.88c-.31-.62-.61-1.25-.95-1.86-2.75-4.92-5.76-9.67-8.82-14.39-.14-.21-.28-.41-.43-.61a1.43,1.43,0,0,0-1.84-.54,7,7,0,0,0-1.2.59A30.51,30.51,0,0,0,626.9,639c-1.14,1.57-2.16,3.23-3.18,4.88a51.41,51.41,0,0,0-3.55,6.73,22.92,22.92,0,0,0-2,9.72,2.84,2.84,0,0,1-.51,1.83,4.12,4.12,0,0,0-.39.63A3.26,3.26,0,0,0,617.22,665.49Zm-406.32,62c0,.41-.05.55,0,.7,0,1.94.12,3.88.14,5.83,0,1.74,0,3.49,0,5.23a48.11,48.11,0,0,1-.21,5.38c-.36,2.82-.93,5.6-1.43,8.4a37.22,37.22,0,0,0-.79,7,4,4,0,0,1-.29,1.61,9.79,9.79,0,0,0-.49,1.41c-.28,1,0,1.47,1.13,1.61a12.21,12.21,0,0,0,1.35.07l11.67.05c2.1,0,4.19,0,6.29-.06a7.56,7.56,0,0,0,2.05-.32,1.85,1.85,0,0,0,1.32-2.22c-.1-.54-.3-1.05-.45-1.58s-.28-1-.39-1.44a22.25,22.25,0,0,1-.47-4.75,6.11,6.11,0,0,0-.42-2.49c-.93-2.14-1.82-4.31-2.72-6.46a21.47,21.47,0,0,0-2.68-5,62,62,0,0,1-3.7-5.25,10.57,10.57,0,0,0-4-3.75,35.77,35.77,0,0,1-5-3.31C211.59,727.9,211.34,727.75,210.9,727.45Zm283.42,98.27a32.88,32.88,0,0,1-5.9-3.49c-.55-.35-1.09-.72-1.65-1l-8.52-4.65a5.44,5.44,0,0,0-.82-.37,1.48,1.48,0,0,0-2,.57,9.6,9.6,0,0,0-.85,1.41q-2.17,4.33-4.33,8.69a53.57,53.57,0,0,1-5.16,8.73c-1.44,1.91-2.85,3.84-4.29,5.75-.48.63-1,1.24-1.52,1.84a5.46,5.46,0,0,1-2.42,1.7,5.35,5.35,0,0,0-1.16.65,1.23,1.23,0,0,0-.31.33c-.58.75-1.16,1.49-1.72,2.25-.05.06,0,.18,0,.35a1.82,1.82,0,0,0,.51.13,74.14,74.14,0,0,0,8.93-.73,44,44,0,0,0,14.1-4.74,42.29,42.29,0,0,0,13.85-12.32A44.74,44.74,0,0,0,494.32,825.72ZM462.18,807a5,5,0,0,0,.72.37c1.16.31,2.31.61,3.47.88a21.64,21.64,0,0,1,4.31,1.6c1.53.71,3,1.62,4.43,2.47,2.07,1.19,4.11,2.42,6.18,3.61q4.59,2.64,9.19,5.24a43.73,43.73,0,0,0,3.92,2.15,1.55,1.55,0,0,0,1.54-.13,4.43,4.43,0,0,0,.89-.79,9,9,0,0,0,1.26-2.35,87.59,87.59,0,0,0,3.29-8.46c.72-1.9,1.27-3.86,2.16-5.7.34-.72.6-1.47.87-2.21a1.19,1.19,0,0,0-.67-1.7,2.35,2.35,0,0,0-.82-.31,38.13,38.13,0,0,1-4.33-1.1c-2.36-.53-4.66-1.28-7.13-1.11a28.43,28.43,0,0,1-3.69.1,1.69,1.69,0,0,0-.59,0,8.84,8.84,0,0,1-3.4.09,8.32,8.32,0,0,0-1.32,0,5.67,5.67,0,0,1-.88.13,25.26,25.26,0,0,0-3.37.29,6.34,6.34,0,0,0-1.31.15c-1.63.43-3.27.83-4.86,1.37a35.45,35.45,0,0,0-4.69,1.91,41.3,41.3,0,0,0-3.93,2.44C463,806.3,462.65,806.63,462.18,807Zm56.54-24.7a2,2,0,0,0,.56.24c.49,0,1,0,1.49,0,1.09,0,2.19,0,3.27.1a4.4,4.4,0,0,0,1.91,0,3,3,0,0,1,1.17.08c.29,0,.58.12.87.14.87.08,1.75.14,2.62.19a37.4,37.4,0,0,1,5.37,1,12.23,12.23,0,0,1,1.42.44c1.83.64,3.63,1.34,5.48,1.9,3.32,1,6.68,1.9,10,2.89a6,6,0,0,0,2.06.2c.78-.05.94-.18,1-1a20.49,20.49,0,0,1,.56-3.66c.28-1.26.57-2.51.77-3.78.24-1.55.41-3.12.59-4.68a38.26,38.26,0,0,1,1.37-7,11.48,11.48,0,0,0,.31-1.15,1.28,1.28,0,0,0-1.16-1.59,17.82,17.82,0,0,0-3.58,0,18.69,18.69,0,0,1-4,.12,21.65,21.65,0,0,0-2.79,0,24.65,24.65,0,0,0-3.94.6c-1.93.43-3.87.85-5.81,1.3a18.64,18.64,0,0,0-4.68,1.85c-1.39.77-2.83,1.45-4.18,2.28a33.12,33.12,0,0,0-4.25,2.75,53.9,53.9,0,0,0-5,4.92A6.07,6.07,0,0,0,518.72,782.31Zm-128.83-441a6,6,0,0,0-.68-.83c-2-1.61-4.08-3.17-6.09-4.8-1.51-1.22-3-2.47-4.42-3.79a78.23,78.23,0,0,1-5.67-6.13c-2-2.29-3.95-4.6-6-6.85a29.82,29.82,0,0,0-2.71-2.56c-.59-.51-1-.47-1.62,0a6.29,6.29,0,0,0-1.86,2.3,56.73,56.73,0,0,1-3.48,5.2c-1.6,2.21-3.29,4.37-4.9,6.58-.67.92-1.26,1.91-1.85,2.89a10.39,10.39,0,0,0-.63,1.35,1.05,1.05,0,0,0,.2,1.11,4.78,4.78,0,0,0,1.48,1.24,46.26,46.26,0,0,0,6.41,3.12c1.82.68,3.62,1.38,5.46,2a34,34,0,0,0,3.48.85c1.11.24,2.23.44,3.36.64a19.14,19.14,0,0,1,3.44.49c.17.06.39-.07.58-.07a11.81,11.81,0,0,1,1.19,0c.59,0,1.18.15,1.77.14s1.28-.17,1.92-.21,1.57,0,2.34-.11a30.07,30.07,0,0,0,7.72-2.16A3.06,3.06,0,0,0,389.89,341.3ZM314.24,813.18c-.51-1.15-.94-2.21-1.43-3.23-.76-1.56-1.51-3.14-2.38-4.65a38.54,38.54,0,0,0-2.6-4,23.72,23.72,0,0,0-3.68-3.68c-1-.85-1.94-1.72-3-2.47-1.42-1-2.89-1.95-4.38-2.85a31.68,31.68,0,0,0-3.17-1.64c-1.45-.65-2.91-1.29-4.41-1.83a28.69,28.69,0,0,0-6.91-1.73c-.79-.07-1.07.48-.83,1.12a2.42,2.42,0,0,0,.37.64,30.77,30.77,0,0,1,5.44,10.88c.93,3.19,1.68,6.44,2.51,9.66.3,1.15.66,2.29.91,3.45s.45,2.53.62,3.81a14.35,14.35,0,0,0,.73,3.16,2.49,2.49,0,0,0,2.79,1.7,16.32,16.32,0,0,0,3.65-1.22c1.51-.63,3-1.35,4.47-2a49.06,49.06,0,0,1,8.88-3.06A3.08,3.08,0,0,0,314.24,813.18Zm16.05-462.63c-.84-.12-1.57-.23-2.3-.32a16.47,16.47,0,0,1-4.58-1.68c-1.67-.76-3.25-1.72-4.86-2.59s-3.18-1.84-4.84-2.6c-1.86-.84-3.59-1.88-5.36-2.88-1.38-.78-2.73-1.63-4.17-2.29-1.94-.88-3.95-1.61-5.93-2.41a6,6,0,0,0-.84-.29,1.17,1.17,0,0,0-1.33.42,3.55,3.55,0,0,0-.43.61q-1.2,2.46-2.36,5c-.8,1.76-1.57,3.53-2.36,5.29-.36.81-.7,1.64-1.07,2.45-.68,1.48-1.39,3-2,4.45a4.66,4.66,0,0,0-.33,1.43,1,1,0,0,0,.68,1.05,4.11,4.11,0,0,0,.85.23,24.94,24.94,0,0,1,5.2,1.24,39.34,39.34,0,0,0,4.64,1.05,2.82,2.82,0,0,0,.58,0c1.25,0,2.5-.09,3.74-.05a27.6,27.6,0,0,1,5.22.17,2.09,2.09,0,0,0,.73-.09c.29,0,.58-.13.88-.15a20.28,20.28,0,0,0,5.49-1.15,17.55,17.55,0,0,1,2-.61c1-.25,2.05-.41,3.05-.68a8.32,8.32,0,0,0,1.94-.76c2.49-1.43,4.93-2.95,7.55-4.14C330.17,351.16,330.19,350.83,330.29,350.55Zm180,20.5c.33-.43.08-.75-.07-1-.31-.57-.71-1.08-1-1.65-.5-.91-1-1.83-1.42-2.78-.94-2.13-1.78-4.31-2.65-6.47s-1.59-4.48-2.26-6.76c-.57-1.95-1-3.94-1.45-5.93-.59-2.71-1.55-5.34-1.79-8.13a3.6,3.6,0,0,0-1.3-2.11,1.18,1.18,0,0,0-.79-.36,6.69,6.69,0,0,0-2.88.49c-2.41,1.16-4.86,2.24-7.3,3.35-1.39.63-2.79,1.26-4.2,1.87-1.22.53-2.48,1-3.69,1.55a8.59,8.59,0,0,0-1.62,1,1.19,1.19,0,0,0-.4,1.34,6.28,6.28,0,0,0,1.53,2.69,8.15,8.15,0,0,1,1.45,2.41,20,20,0,0,0,2.72,4.79,28.66,28.66,0,0,0,9.8,8.57c.92.48,1.87.92,2.8,1.38,2.15,1.05,4.3,2.08,6.43,3.17a29.45,29.45,0,0,0,4.28,1.68A18.34,18.34,0,0,0,510.28,371.05ZM255.68,770.84c0,.16-.1.25-.09.33a5.88,5.88,0,0,0,.23.71,56.28,56.28,0,0,1,2.54,8.42c.92,4.19,1.76,8.39,2.41,12.63.49,3.15.87,6.31,1.19,9.48a10.91,10.91,0,0,0,.47,2.34,2.16,2.16,0,0,0,3,1.64l2.74-.72c1.3-.34,2.61-.65,3.91-1l10.95-3a11.22,11.22,0,0,0,1.28-.41,1,1,0,0,0,.62-1.32c-.1-.33-.23-.66-.36-1-.34-.83-.74-1.64-1-2.49A32.17,32.17,0,0,0,278,786a55,55,0,0,0-11.27-10.65,26.54,26.54,0,0,0-9.6-4.35A3.38,3.38,0,0,0,255.68,770.84ZM641.13,452a3.44,3.44,0,0,1-1.42-2.94c0-.25-.08-.49-.09-.74a5.62,5.62,0,0,0-.92-2.65c-.8-1.33-1.52-2.69-2.29-4-1.06-1.86-2.07-3.75-3.19-5.58a22.51,22.51,0,0,0-5.77-6.41c-.85-.62-1.74-1.18-2.62-1.74A70.82,70.82,0,0,0,611.74,421a20.41,20.41,0,0,0-2.12-.73,1,1,0,0,0-1.33.67,10.49,10.49,0,0,0-.46,1.57c-1,4.37-2,8.73-3.06,13.1-.27,1.16-.59,2.32-.8,3.49s.34,1.8,1.51,1.95h.45a14.38,14.38,0,0,1,4.67.89c1.7.56,3.43,1,5.17,1.49,2.89.75,5.79,1.47,8.69,2.18,1.4.35,2.82.65,4.22,1a15.53,15.53,0,0,1,6.33,2.89c1.5,1.23,3.17,2.25,4.6,3.58.49.45.9.36,1.19-.22A6.2,6.2,0,0,0,641.13,452ZM270.35,334.63a14.91,14.91,0,0,0-1.52,0,7.22,7.22,0,0,0-1.47.29c-1.41.46-2.82,1-4.23,1.46a27.65,27.65,0,0,0-5.62,2.76c-2.41,1.51-4.59,3.33-6.88,5a15.38,15.38,0,0,0-4.2,4.6,9.46,9.46,0,0,1-1.56,2,17,17,0,0,0-4.06,5.85c-1.06,2.53-2.05,5.08-3.06,7.63a3.12,3.12,0,0,0-.17.87c-.05.62.19.94.83,1a9,9,0,0,1,3.14.93,22.5,22.5,0,0,0,4.38,1.45,28.17,28.17,0,0,1,7.62,2.56,4.61,4.61,0,0,0,2.29.61,2.17,2.17,0,0,0,2.24-1.42,8.54,8.54,0,0,0,.47-1.87c.36-2.52.88-5,1.47-7.47.53-2.23,1.13-4.44,1.54-6.7a32.09,32.09,0,0,1,3.06-9c1.35-2.61,2.85-5.14,4.28-7.71A17.31,17.31,0,0,0,270.35,334.63ZM121.63,566a1.68,1.68,0,0,0-.22.3q-.15.34-.27.69a34.13,34.13,0,0,0-1.84,12.35c.06,1.8,0,3.58-.11,5.38a8.39,8.39,0,0,0,.59,4.25c1.56,3.28,3,6.6,4.66,9.85a44.24,44.24,0,0,0,6.34,9.58c.36.41.73.81,1.13,1.19a.72.72,0,0,0,1,.06,4.65,4.65,0,0,0,.66-.6q5.81-5.82,11.6-11.66a7.26,7.26,0,0,0,.69-.78,1.77,1.77,0,0,0,0-2.34,8.35,8.35,0,0,0-.8-.89c-4.21-4.25-8.39-8.53-12.65-12.73a50.16,50.16,0,0,1-7-8.74c-1.1-1.72-2.13-3.49-3.2-5.23A8.2,8.2,0,0,0,121.63,566ZM408.87,304.68a1.86,1.86,0,0,0-1.5-1.53,13.68,13.68,0,0,1-3.63-.83,11.54,11.54,0,0,0-4.4-.66l-3.58.25a42.58,42.58,0,0,0-8.25,1.3c-2.6.69-5.15,1.54-7.73,2.28a27.13,27.13,0,0,0-9.36,4.84c-1.37,1.07-2.81,2.06-4.26,3-.85.56-1,1.23-.15,2,.18.18.39.32.56.49.9.87,1.83,1.7,2.66,2.63,1.29,1.45,2.52,3,3.76,4.45a51.56,51.56,0,0,0,5,5.55c1.49,1.36,1.94,1.33,3.32-.12s2.52-2.7,3.86-4c2.54-2.4,5-4.89,7.39-7.41,1.59-1.65,3.22-3.27,4.89-4.84a31.82,31.82,0,0,1,10.49-6.76,2.24,2.24,0,0,0,.66-.32A1.31,1.31,0,0,0,408.87,304.68ZM231.32,788c0-.35.06-.73.06-1.1q0-8.67,0-17.35c0-.35,0-.7,0-1A1.67,1.67,0,0,0,230,767a10.46,10.46,0,0,0-2.22-.28c-2.24,0-4.49-.05-6.73,0a103.1,103.1,0,0,1-15.22-.1,35.26,35.26,0,0,1-5.85-1.18,26.55,26.55,0,0,1-4.71-1.87,2.19,2.19,0,0,0-1.43-.3.76.76,0,0,0-.62,1,22.1,22.1,0,0,0,3.12,6.58,27.37,27.37,0,0,0,5.33,5.42,69.09,69.09,0,0,0,11,7.07,35,35,0,0,0,9.41,3.28,25.93,25.93,0,0,0,6,.4,3,3,0,0,1,2.23.61A1.14,1.14,0,0,0,231.32,788ZM580.77,430.21c.05-.47.12-.8.12-1.13,0-1.89,0-3.79,0-5.68a40,40,0,0,1,1.64-13.57,13.77,13.77,0,0,0,.71-6.77,13.24,13.24,0,0,1-.07-2.09,9.28,9.28,0,0,1,1-4.48,2.92,2.92,0,0,0,.25-.54,1.64,1.64,0,0,0-1.38-2.33,6,6,0,0,0-1.34-.07H570.31c-2.44,0-4.89,0-7.33,0-1.6,0-2.25.64-2.39,2.24a4.56,4.56,0,0,0,.07,1.33c.14.68.36,1.34.54,2s.45,1.63.62,2.46.25,1.67.41,2.5a24.61,24.61,0,0,0,2.62,7.74c1.15,2,2.36,3.93,3.58,5.87a69,69,0,0,1,3.92,6.35,4.52,4.52,0,0,0,2,2c1,.55,1.92,1.23,2.87,1.88s1.79,1.26,2.7,1.87A5.47,5.47,0,0,0,580.77,430.21Zm-44.34-42.66a2.64,2.64,0,0,0-.39-1.65,66,66,0,0,1-4.34-18.25q-.57-6.18-1.19-12.36a26.67,26.67,0,0,0-.43-2.8c-.17-.89-.6-1.18-1.5-1-2.09.42-4.2.83-6.27,1.35-4.3,1.09-8.53,2.43-12.87,3.35a4.36,4.36,0,0,0-1.11.41,1.23,1.23,0,0,0-.57,1.77,7.94,7.94,0,0,1,.65,2.44,9,9,0,0,0,1.19,3.67c.86,1.51,1.68,3.05,2.6,4.53a34.94,34.94,0,0,0,8.23,9.6c2.52,1.95,5.13,3.8,7.76,5.59A21,21,0,0,0,536.43,387.55ZM521.66,823.11a2.48,2.48,0,0,0,2.18-.22,12.47,12.47,0,0,1,2.72-.8c.92-.21,1.86-.36,2.77-.62a11.49,11.49,0,0,0,5.5-3.16,11.52,11.52,0,0,1,2.46-1.93c1.23-.76,2.45-1.53,3.66-2.32a14.69,14.69,0,0,0,4.2-4c1.35-2,2.89-3.94,4.37-5.88.18-.24.35-.48.52-.73a62.68,62.68,0,0,0,4.78-8.78,3.49,3.49,0,0,0,.2-.57,1.91,1.91,0,0,0-1.34-2.59,12.74,12.74,0,0,0-2-.59,60.6,60.6,0,0,1-9-2.64,39.22,39.22,0,0,0-4-1.17,12.49,12.49,0,0,0-2.52-.3c-1,0-1.22.19-1.5,1.1-.13.42-.22.86-.33,1.3-1,4-1.89,7.94-2.88,11.9A64.26,64.26,0,0,1,526,815.3c-1.19,2.25-2.47,4.45-3.7,6.67C522.06,822.31,521.89,822.66,521.66,823.11ZM164.49,430.34a18.93,18.93,0,0,0-6.05,6.41c-.69,1.16-1.31,2.35-1.94,3.54-.93,1.76-1.75,3.59-2.78,5.29a22.57,22.57,0,0,0-2.63,7.73c-.4,2.16-.78,4.32-1.2,6.47a8.19,8.19,0,0,0-.09,3.27c.27,1.31.58,2.62.9,3.93a21.42,21.42,0,0,1,.74,4c.1,1.86.94,2.6,2.87,2.12,1.74-.43,3.48-.85,5.21-1.32,3.07-.85,6.13-1.75,9.27-2.33a12.64,12.64,0,0,0,1.75-.37,1.61,1.61,0,0,0,1.25-2.06,4.56,4.56,0,0,0-.21-.72c-.24-.76-.49-1.51-.74-2.27-1.35-4.17-2.37-8.44-4-12.52a10.3,10.3,0,0,1-.64-3.66,25.24,25.24,0,0,0-.26-3.13c-.24-1.83-.54-3.65-.8-5.47a25.79,25.79,0,0,1-.25-6.27,9.73,9.73,0,0,0,0-1.79A2.68,2.68,0,0,0,164.49,430.34ZM613.56,484l.29-.09c0-.29,0-.58,0-.86,0-.9,0-1.8,0-2.69a20.69,20.69,0,0,1,1.76-6.6c1.42-3.35,2.82-6.7,4.07-10.11a119.36,119.36,0,0,1,6-14.47,3,3,0,0,0,.22-.56.55.55,0,0,0-.62-.76,7,7,0,0,1-3.46-.73,15.74,15.74,0,0,0-2-.64c-1.45-.38-2.9-.71-4.35-1.08-3-.76-6-1.56-9-2.29a9.57,9.57,0,0,0-2.21-.18,1.65,1.65,0,0,0-1.55,1,5.67,5.67,0,0,0-.47,1.55c-.12.79-.17,1.59-.21,2.38a9,9,0,0,1-.87,3.75,3.7,3.7,0,0,0,.06,3.59,8.67,8.67,0,0,1,1,3.11c.14,1,.26,2.07.37,3.11a15.59,15.59,0,0,0,.76,3.65c.63,1.73,1.21,3.48,1.89,5.19a45.23,45.23,0,0,0,7.09,12.4C612.78,483.1,613.18,483.54,613.56,484Zm17.13,59.16c.18-.41.29-.62.36-.84.26-.8.48-1.63.78-2.41a26.29,26.29,0,0,1,4-6.79c1.45-1.84,3-3.61,4.41-5.47,3.47-4.57,6.88-9.18,10.31-13.77a7.52,7.52,0,0,0,.48-.87,6.57,6.57,0,0,0-2.75-2.92c-.86-.5-1.77-.92-2.66-1.36a18.15,18.15,0,0,1-3.18-1.94,17.42,17.42,0,0,0-2.24-1.49c-2.26-1.27-4.54-2.49-6.81-3.73a5.34,5.34,0,0,0-.7-.27,1.43,1.43,0,0,0-1.62.45,4.74,4.74,0,0,0-.66,1,32.29,32.29,0,0,0-2.7,6.62c-1.25,4.26-1.92,8.65-2.83,13a3.82,3.82,0,0,0,.11,1.46,6.93,6.93,0,0,0,.52,1.4,4.68,4.68,0,0,1,.43,2.18,19.28,19.28,0,0,0,.69,5.17,43.19,43.19,0,0,0,2.22,6.33ZM580,783a4.41,4.41,0,0,0,.7-.14,60.91,60.91,0,0,0,7-3.4,15.75,15.75,0,0,0,6-6.07,5.63,5.63,0,0,1,1.15-1.55,21,21,0,0,0,4.84-6.94c1-2.22,2-4.45,3-6.7a8.74,8.74,0,0,0,.62-2.29c.21-1.63.35-3.28.45-4.92a13.83,13.83,0,0,1,.73-3.65,5.06,5.06,0,0,0,.27-1.15,1.63,1.63,0,0,0-1.07-1.78,4.48,4.48,0,0,0-2-.3H587.59a10.55,10.55,0,0,0-1.49.07,1.93,1.93,0,0,0-1.81,1.53,8.17,8.17,0,0,0-.22,1.77q0,6.51,0,13c0,1,0,2.1.09,3.14a31.45,31.45,0,0,1-.89,10.23,43.14,43.14,0,0,1-2.78,7.88C580.32,782.05,580.21,782.42,580,783ZM480,317.35l-1.61-.81c-.58-.28-1.17-.55-1.74-.86a48.44,48.44,0,0,0-19.74-5.87,10,10,0,0,0-4.85.54,5.72,5.72,0,0,1-2.78.4,13.26,13.26,0,0,0-6.55,1.18c-2.17,1-4.27,2.15-6.4,3.24a3.84,3.84,0,0,0-.5.32,1.6,1.6,0,0,0-.63,2.09,9.82,9.82,0,0,0,.7,1.32c1.15,2,2.4,3.91,3.44,6,1.31,2.58,2.94,5,4.43,7.43.7,1.15,1.24,1.3,2.51.88a9.67,9.67,0,0,0,2.65-1.37,29.09,29.09,0,0,1,4.11-2.41,64,64,0,0,0,9.91-5.82,23.94,23.94,0,0,1,5.93-3.1,53.24,53.24,0,0,1,8.94-2.35c.69-.14,1.36-.29,2-.45C479.92,317.66,479.93,317.58,480,317.35ZM443.3,822.12c-2-1.06-4-2.17-6.09-3.1a51.53,51.53,0,0,0-9.81-3.47,31.24,31.24,0,0,0-7.56-1.16.88.88,0,0,1-.43-.09,2.43,2.43,0,0,0-1.74-.13,15.64,15.64,0,0,1-1.94,0c-1,0-2-.38-2.92.17,0,0-.09,0-.14,0a11.44,11.44,0,0,0-3.2.3c-1,.18-1.92.48-2.9.62a29.76,29.76,0,0,0-5,1.45s0,.07-.1.22a3.59,3.59,0,0,0,.78.56,15.68,15.68,0,0,1,5.19,3.42c2.78,2.56,5.38,5.31,8.23,7.8.67.59,1.27,1.25,1.94,1.85s1.63,1.3,2.39,2l3.71,3.44c1.28,1.19,2.53,2.4,3.77,3.62a4.85,4.85,0,0,0,1.87,1.13,3.33,3.33,0,0,0,2-1.74,73.6,73.6,0,0,1,4.73-6.52c2.32-2.84,4.54-5.77,6.61-8.81A3,3,0,0,0,443.3,822.12ZM582,756.6c0-2.65,0-5.29,0-7.94a24.49,24.49,0,0,0-.21-2.83c-.2-1.49-.71-1.9-2.22-1.71a15,15,0,0,0-2.46.61,6.45,6.45,0,0,1-2.5.35,16,16,0,0,0-8.4,1.69c-2.1,1-4.15,2.17-6.22,3.25A38.71,38.71,0,0,0,545,763.3a.84.84,0,0,0-.16.83,1,1,0,0,0,1,.53,2.36,2.36,0,0,0,.83-.3,4.17,4.17,0,0,1,2-.66,29.47,29.47,0,0,1,6.57.12c2,.35,4,.55,5.92.81,1.33.18,2.67.33,4,.54a91.83,91.83,0,0,0,9.79,1.21,11.85,11.85,0,0,1,4.36,1,4.39,4.39,0,0,0,1.45.28.8.8,0,0,0,1-.73,10.35,10.35,0,0,0,.24-2.07C582,762.08,582,759.34,582,756.6Zm-403.6-82.55-.28.09a11.69,11.69,0,0,1-.5,5.16c-.69,2.3-1.14,4.64-1.69,7a29.41,29.41,0,0,1-2.54,7.32,67.28,67.28,0,0,0-3.45,7.77,31.69,31.69,0,0,1-3,6.15,4,4,0,0,0-.47.92,1.21,1.21,0,0,0,.83,1.65c.28.09.58.11.87.18,1.07.25,2.15.44,3.19.77,1.8.57,3.62,1.07,5.47,1.48a53.74,53.74,0,0,1,8.61,2.43,6,6,0,0,0,1.9.29A1.64,1.64,0,0,0,189,714a10.79,10.79,0,0,0,.41-1.58q.66-3.52,1.26-7.06a11.07,11.07,0,0,0,.1-3.72c-.22-1.32-.46-2.64-.73-4a19.42,19.42,0,0,1-.58-4.28,3.71,3.71,0,0,0-.5-1.84c-.81-1.55-1.57-3.12-2.35-4.67-.92-1.82-1.81-3.66-2.78-5.45a32.33,32.33,0,0,0-4.51-6.49C179,674.64,178.68,674.35,178.37,674.05ZM657.75,662.4c.24-.08.35-.09.4-.15a17.06,17.06,0,0,0,3.7-5.91c.5-1.41.92-2.84,1.32-4.28.76-2.73,1.14-5.56,2.24-8.21a4.85,4.85,0,0,0-.09-3.93,14.1,14.1,0,0,1-1-4.2,47.2,47.2,0,0,0-2-10.39q-1.08-3.18-2.27-6.32c-.43-1.15-1-1.51-2.52-1.11a4.3,4.3,0,0,0-1,.44c-1.79,1-3.6,1.93-5.35,3a94,94,0,0,1-8.61,4.8c-1.54.71-1.64.95-1,2.51a21.19,21.19,0,0,0,2.56,4.55,99.23,99.23,0,0,1,6.68,10.63,59,59,0,0,1,4.38,9.48c.47,1.36.93,2.73,1.43,4.09A15.26,15.26,0,0,1,657.75,662.4ZM338.11,310c-.6-.09-1.09-.19-1.58-.23a32.09,32.09,0,0,0-9.37.69A65.08,65.08,0,0,0,316.55,314a31.09,31.09,0,0,0-11.27,8,80.31,80.31,0,0,0-6.68,8.81,3.87,3.87,0,0,0-.47.93,1,1,0,0,0,.4,1.19,2.41,2.41,0,0,0,.65.36,42.16,42.16,0,0,1,7.54,3.92c1.88,1.12,3.83,2.14,5.75,3.18a11.77,11.77,0,0,0,1.78.79,2,2,0,0,0,2.88-1.06c.4-.68.74-1.41,1.1-2.12,1.7-3.32,3.34-6.69,5.12-10a70.36,70.36,0,0,1,8.83-12.77,10.18,10.18,0,0,1,2.88-2.34,17.54,17.54,0,0,0,2.11-1.4A2,2,0,0,0,338.11,310ZM197.6,414.11v0c2.34,0,4.69,0,7,0a15.67,15.67,0,0,0,1.94-.12,1.26,1.26,0,0,0,1.17-1.17,15.22,15.22,0,0,0,.09-1.79c0-4.54,0-9.07,0-13.61,0-1.1,0-2.2.08-3.29q.35-3.49.8-7c.17-1.29.42-2.56.66-3.83a38.35,38.35,0,0,1,1.54-5.77,2.23,2.23,0,0,0,0-1.61.59.59,0,0,0-.75-.3,1.8,1.8,0,0,0-.47.35,7.12,7.12,0,0,1-2.16,1.58c-.71.35-1.45.67-2.14,1.06a7.64,7.64,0,0,0-1.61,1.07c-2.4,2.25-4.81,4.49-7.11,6.84a22.32,22.32,0,0,0-5.41,8.68c-.39,1.18-.82,2.35-1.29,3.5a25.28,25.28,0,0,0-1.65,5.57c-.36,2.36-.66,4.74-1,7.11a5.15,5.15,0,0,0,0,1,1.55,1.55,0,0,0,1.32,1.58,7.4,7.4,0,0,0,1.33.13Zm401.71-19.75a4.23,4.23,0,0,0-.7-2.33,29.59,29.59,0,0,0-6.94-8.92A62.55,62.55,0,0,0,575.5,373a20,20,0,0,0-8.83-2,7,7,0,0,1-3.18-.72,7.07,7.07,0,0,0-1.26-.47,1.11,1.11,0,0,0-1.42.76,4.33,4.33,0,0,0-.23,1.17c0,.8,0,1.6,0,2.4v12.41a23.87,23.87,0,0,0,.05,2.54,2.1,2.1,0,0,0,2.09,2.13,6.73,6.73,0,0,0,1.19.06c1.15,0,2.29-.05,3.44-.05h18.4a23.48,23.48,0,0,1,6.35.85c1.91.55,3.81,1.16,5.72,1.74Zm-309,429A9.69,9.69,0,0,0,290,819c-.34-1.15-.71-2.29-1-3.45-.39-1.54-.69-3.11-1.06-4.65-.43-1.85-.93-3.68-1.35-5.52a1.79,1.79,0,0,0-1.62-1.52,4.59,4.59,0,0,0-1.48,0c-.93.18-1.83.45-2.75.69s-1.63.46-2.46.63c-2.14.47-4.31.82-6.43,1.36-3.18.82-6.33,1.75-9.5,2.62a21.27,21.27,0,0,1-6.51.7c-2.88-.1-5.78,0-8.67,0a2,2,0,0,0-.56.2c1.66,1.68,3.2,3.3,4.8,4.85a9.24,9.24,0,0,0,2,1.48c2.47,1.31,5,2.56,7.46,3.8a27.93,27.93,0,0,0,9.86,2.81,52.2,52.2,0,0,1,8.39,1.44,8.21,8.21,0,0,0,3.69.07C285.25,824.06,287.61,823.13,290.28,823.34ZM482.65,358.23c-.35-.44-.55-.72-.78-1a26.74,26.74,0,0,1-4.31-6.62c-.57-1.22-1.07-2.47-1.62-3.7-2.31-5.24-4.65-10.47-6.62-15.85-.64-1.73-1.45-3.4-2.24-5.06s-1.51-1.92-3.11-.82c-1.15.79-2.34,1.51-3.55,2.21-1.41.84-2.87,1.6-4.29,2.43-1.64.95-3.25,1.94-4.87,2.92-.9.54-1.81,1.06-2.69,1.62a5.67,5.67,0,0,0-1,.86,1.56,1.56,0,0,0-.37,1.79,4.84,4.84,0,0,0,.41.78,38,38,0,0,0,9.9,10.49c3.77,2.72,7.76,5.07,11.75,7.42a8.52,8.52,0,0,0,1.65.7,20,20,0,0,0,5.14.91c1,.07,2,.14,3,.27S481.24,358,482.65,358.23ZM134.83,494.73a5,5,0,0,0-.46.42,25.67,25.67,0,0,0-5.79,12.62c-.29,2-.5,4-.82,5.92a20.21,20.21,0,0,0,.16,8.16,15.55,15.55,0,0,1,.4,3.26,19.5,19.5,0,0,0,1.21,6.43c.91,2.43,1.89,4.82,2.86,7.22a3.33,3.33,0,0,0,.44.78,1.73,1.73,0,0,0,2.1.71,7.38,7.38,0,0,0,1.48-.69c2-1.17,4-2.4,6.07-3.54s4.39-2.35,6.58-3.55c2-1.09,2.18-2.07.91-4-1.5-2.23-3-4.49-4.44-6.74a96.82,96.82,0,0,1-6.65-11.68,19.63,19.63,0,0,1-2.16-7.56,5.9,5.9,0,0,0-.15-.73c-.43-2.3-1.31-4.5-1.49-6.85C135.08,494.89,135,494.87,134.83,494.73Zm410.4-147a1.17,1.17,0,0,0-.1-.34,3.39,3.39,0,0,0-.41-.44,55,55,0,0,0-9.61-7,44.45,44.45,0,0,0-11.45-4.63A47.65,47.65,0,0,0,509,333.88c-1.64.11-3.28.24-4.91.42-1.08.12-2.14.35-3.27.54,0,.28-.05.54.05.65a5.36,5.36,0,0,1,.84,2.51c.35,1.55.69,3.1,1.09,4.65.83,3.27,1.8,6.52,2.4,9.85a4.34,4.34,0,0,0,.19.73,1.53,1.53,0,0,0,1.67,1.19,7.43,7.43,0,0,0,1.63-.21c2.16-.56,4.33-1.13,6.48-1.75a79.76,79.76,0,0,1,9.26-2.3c1.23-.19,2.43-.52,3.64-.81,1.94-.47,3.85-1,5.8-1.43a16.47,16.47,0,0,1,6.67-.2c.83.17,1.64.41,2.46.62A2.06,2.06,0,0,0,545.23,347.68Zm-394,356.92-.2.2c.19.45.37.91.58,1.35a112.42,112.42,0,0,1,4.7,10.81,24,24,0,0,0,5.26,8.28,37.26,37.26,0,0,0,9.73,7.37c3.13,1.64,6.32,3.17,9.49,4.74,1.64.81,2.71.06,3-1.63.44-2.65,1.11-5.26,1.79-7.86s1.46-5.38,1.89-8.14a11.2,11.2,0,0,0,.1-1.64.92.92,0,0,0-.55-.83,4.24,4.24,0,0,0-.84-.31c-4.13-.92-8.27-1.8-12.39-2.76a53.5,53.5,0,0,1-7.75-2.21,75,75,0,0,1-7.7-3.62c-2-1.07-3.95-2.13-5.92-3.18C152,705,151.65,704.78,151.25,704.6Zm13.56-182.82c-.25.31-.55.64-.8,1a26.44,26.44,0,0,1-7.83,7.25c-1.37.88-2.72,1.82-4.07,2.74-.9.61-1.79,1.23-2.68,1.86a45.28,45.28,0,0,1-6.39,3.81c-2,1-3.88,2-5.8,3a5.49,5.49,0,0,0-2.35,1.78,2,2,0,0,0,.29,1.42c1.39,1.76,2.65,3.62,4.16,5.27a74.38,74.38,0,0,1,5.74,7,19.39,19.39,0,0,0,3.11,3.6,1.47,1.47,0,0,0,1.59-.53c1.18-1.28,2.47-2.45,3.63-3.75a59.7,59.7,0,0,0,7.17-9.51,30.24,30.24,0,0,0,1.88-3.56,39.7,39.7,0,0,0,2.12-6.49c.09-.44.25-.86.33-1.3.31-1.75.61-3.49.9-5.24a7.59,7.59,0,0,0,.23-2.05,19.52,19.52,0,0,1,0-4.89,1.15,1.15,0,0,0-.12-.71A1.41,1.41,0,0,0,164.81,521.78Zm148.52,319a6.6,6.6,0,0,0,.76.55c1.33.69,2.65,1.4,4,2a31.16,31.16,0,0,0,7.57,2.74c1.61.33,3.19.77,4.78,1.17.82.21,1.63.47,2.46.66,2.22.5,4.42.73,6.57-.36a2.72,2.72,0,0,1,1.74-.27,14.39,14.39,0,0,0,7.34-.9,47,47,0,0,0,7.28-3.79,2.36,2.36,0,0,0,.36-.26,1.6,1.6,0,0,0,.51-2.12,7.53,7.53,0,0,0-.41-.8q-4.08-7-8.16-13.93c-.81-1.38-1.3-1.52-2.65-.72-1.08.63-2.1,1.34-3.17,2-2.65,1.59-5.28,3.22-8,4.71s-5.32,2.73-8,4.1a70.3,70.3,0,0,1-9,4C316.11,840,314.86,840.36,313.33,840.81ZM205,438.47c-1.53.55-3,1-4.32,1.55a25.41,25.41,0,0,1-8.83,2.05c-1.54.09-3.08.18-4.62.36-1.73.21-3.44.52-5.16.79-2.46.38-4.93.74-7.38,1.16-1.52.26-3,.54-4.54.9-1.87.45-2.28,1.68-1.73,3.12a3.45,3.45,0,0,1,.12.43c1.7,5.42,3.38,10.84,5.09,16.25a5.6,5.6,0,0,0,.49,1.09,1.52,1.52,0,0,0,1.62.84,6.31,6.31,0,0,0,1.71-.48c2.44-1.13,4.88-2.26,7.28-3.47a35.2,35.2,0,0,0,16-16c1.39-2.75,2.84-5.48,4.27-8.22C205,438.82,205,438.76,205,438.47ZM639.61,684.83l-1.43.34-14.44,3.23c-.58.13-1.17.24-1.74.4a1,1,0,0,0-.83,1.09,6.62,6.62,0,0,0,.22,1.32c.58,2.42,1.19,4.84,1.76,7.26s1.07,4.86,1.64,7.28c.39,1.6.85,3.18,1.27,4.77a28.78,28.78,0,0,1,1.08,8.41c-.09,2.59,0,5.19,0,7.78a4.57,4.57,0,0,0,.09.66c.2,0,.31,0,.39,0a13.49,13.49,0,0,0,6.21-5.18,24.52,24.52,0,0,0,1.65-3q1.6-3.61,3.09-7.28a34.34,34.34,0,0,0,2.2-7.9c.27-1.87.55-3.75.94-5.6a14,14,0,0,0,.18-4.61A46.34,46.34,0,0,0,639.61,684.83Z" transform="translate(-116.68 -299.77)"/><path class="cls-2" d="M391.25,858.57l.59-.27H396l.61.28Z" transform="translate(-116.68 -299.77)"/><path class="cls-2" d="M676,583.4l-.27-.5v-3.52l.27-.47Z" transform="translate(-116.68 -299.77)"/><path class="cls-2" d="M339.42,809.9a2,2,0,0,1,1.88-.38,4.77,4.77,0,0,0,2.06,0,8.13,8.13,0,0,1,1.64-.07c.35,0,.7.07,1,0a17.73,17.73,0,0,1,5.43.64c1.5.34,3,.67,4.49,1.07a34.11,34.11,0,0,1,5.24,1.71c1.54.7,3,1.49,4.53,2.24a24.14,24.14,0,0,1,3.68,2.51,70.39,70.39,0,0,1,7.73,6.81c.38.39.8.75,1.19,1.13a.69.69,0,0,1,.1,1,16,16,0,0,1-1.37,1.36c-2.37,2.13-4.93,4-7.46,5.94-1.5,1.15-3.1,2.16-4.68,3.2a7.82,7.82,0,0,0-1.7,1.44,18,18,0,0,1-1.4,1.36,2.5,2.5,0,0,1-1.61.68,1.43,1.43,0,0,1-1.08-.38,13.61,13.61,0,0,1-2.45-3.15c-.61-1-1-2-1.7-3a13.4,13.4,0,0,1-1.17-2.22c-.78-1.56-1.5-3.15-2.33-4.68-1.17-2.18-2.42-4.33-3.64-6.48a30.25,30.25,0,0,0-3.5-4.84c-1.46-1.69-2.91-3.4-4.35-5.11A6.82,6.82,0,0,1,339.42,809.9Z" transform="translate(-116.68 -299.77)"/><path class="cls-2" d="M225.35,414.91c-.24.52-.41,1-.66,1.41a50.84,50.84,0,0,1-4.66,6.55c-1.34,1.6-2.81,3.08-4.3,4.55a57.11,57.11,0,0,1-7,5.77c-1.16.83-2.45,1.49-3.68,2.22a37.66,37.66,0,0,1-4.18,1.95,31,31,0,0,1-4.54,1.4c-1,.25-2.05.31-3.07.5a3.31,3.31,0,0,1-1.33-.07,2.35,2.35,0,0,1-2.08-2.15,14.34,14.34,0,0,1-.18-2.07,18.22,18.22,0,0,0-.54-3.18c-.28-1.26-.54-2.52-.73-3.8a17.72,17.72,0,0,1,0-1.78,11,11,0,0,0-.18-1.62c-.15-.73-.33-1.45-.53-2.17a8.84,8.84,0,0,1-.55-2c0-.63.07-1.27,0-1.92a2.53,2.53,0,0,1,2.36-2.56,5,5,0,0,1,2.34,0,3,3,0,0,0,.9,0h22.75a16.89,16.89,0,0,0,5.42-.81,7.86,7.86,0,0,1,1.15-.32A6.16,6.16,0,0,1,225.35,414.91Z" transform="translate(-116.68 -299.77)"/><path class="cls-3" d="M660.55,580.72a17.72,17.72,0,0,1-2.2,2.15c-1.68,1.33-3.36,2.66-5.07,3.94q-5.44,4.07-10.92,8.1a24.52,24.52,0,0,0-5.42,5.53,23.34,23.34,0,0,1-3.49,3.88,5.17,5.17,0,0,1-.56.49.79.79,0,0,1-1.19-.45,2.06,2.06,0,0,1,0-.89,8.77,8.77,0,0,0-.51-4.84,14.33,14.33,0,0,1-.45-7.65c.46-2.5.87-5,1.53-7.46a31.44,31.44,0,0,1,6.9-13.24,21.17,21.17,0,0,0,3.74-5.2,3.31,3.31,0,0,1,.6-.84,1,1,0,0,1,1.36-.16,8.82,8.82,0,0,1,1.29,1.23c1.74,2,3.43,4,5.18,6a103.67,103.67,0,0,0,8.69,8.85C660.15,580.28,660.28,580.43,660.55,580.72Z" transform="translate(-116.68 -299.77)"/><path class="cls-2" d="M232.23,750.13a2.83,2.83,0,0,1,1.86.5c1.69,1,3.48,1.92,5.1,3.09a37.6,37.6,0,0,1,7.18,6.68,45.8,45.8,0,0,1,4.6,7,42.07,42.07,0,0,1,2.19,4.66c.62,1.57,1.12,3.19,1.72,4.76.74,2,1.18,4,1.79,6a11.69,11.69,0,0,1,.3,1.5,2.67,2.67,0,0,1-2,.9,19,19,0,0,1-3.78.55,18.77,18.77,0,0,0-2.32.33s-.1.05-.14,0c-1.34-.37-2.65.22-4,.11a11.12,11.12,0,0,0-2.62.24c-1.12.16-2.24.38-3.36.57a19.4,19.4,0,0,1-3.8.35c-.77,0-1.66-.78-1.51-1.49a12.53,12.53,0,0,0-.11-2.81c0-6,0-12,0-17.95a4,4,0,0,1,0-.6,17.75,17.75,0,0,0-.44-5.72c-.17-1.07-.24-2.17-.49-3.22s-.19-2.12-.43-3.18A7.45,7.45,0,0,1,232.23,750.13Z" transform="translate(-116.68 -299.77)"/><path class="cls-2" d="M626.08,636.52a25.34,25.34,0,0,1-.16-4.86c0-.5.09-1,.05-1.49a16.09,16.09,0,0,1,.3-4,5,5,0,0,1,.25-1,22.42,22.42,0,0,0,.9-3.61c.26-1.21.52-2.42.74-3.64a11.19,11.19,0,0,1,1.1-2.92c.64-1.29,1.35-2.55,2.11-3.77q1.38-2.22,2.9-4.34a63.61,63.61,0,0,1,4.65-5.6c1.11-1.21,2.29-2.35,3.42-3.54a9.47,9.47,0,0,1,1.12-1c.54-.41.85-.4,1.29.1s1.07,1.3,1.59,2c1.4,1.81,2.78,3.63,4.19,5.42,1.9,2.43,3.89,4.8,5.63,7.35.42.61.74,1.29,1.16,1.91a2,2,0,0,1,.2,1.58,1.55,1.55,0,0,1-.57.84,4.13,4.13,0,0,1-1.29.73,18.58,18.58,0,0,0-3.69,2c-2,1.19-4,2.37-6.07,3.45-1.1.57-2.2,1.1-3.32,1.61a12.76,12.76,0,0,0-2,1.23c-.82.57-1.64,1.15-2.4,1.78a25.33,25.33,0,0,1-3.55,2.47,29.47,29.47,0,0,0-5.2,4.24c-.87.82-1.69,1.7-2.54,2.53A7.4,7.4,0,0,1,626.08,636.52Z" transform="translate(-116.68 -299.77)"/><path class="cls-2" d="M567.52,743.19a25.13,25.13,0,0,1,1.08-2.45c.6-1,1.07-2.13,1.7-3.14a31.86,31.86,0,0,1,4.34-5.49,48.35,48.35,0,0,1,5.52-4.79c1-.78,2.18-1.39,3.26-2.1a21.56,21.56,0,0,0,2.1-1.43,20.3,20.3,0,0,1,8.09-4,17.84,17.84,0,0,1,4.64-.8c.76-.44,1.55-.11,2.33-.09a.88.88,0,0,1,.86.68,39,39,0,0,1,1.58,6.92,11.23,11.23,0,0,1,.24,2.3c0,.75.27,1.44.19,2.21a6.35,6.35,0,0,0,.35,1.88c.23,1,.47,1.93.74,2.88a11.88,11.88,0,0,1,.21,3.85,2.31,2.31,0,0,1-2.18,2.25,10.45,10.45,0,0,1-1.48.15h-4.63c-3.49,0-7,.08-10.46.09-2,0-4.09,0-6.13-.1-.84,0-1.68-.14-2.52-.19a14.83,14.83,0,0,0-6.27.94A9.65,9.65,0,0,1,567.52,743.19Z" transform="translate(-116.68 -299.77)"/><path class="cls-2" d="M192.72,701.82a6.88,6.88,0,0,1,1.13.56c1,.85,2.06,1.72,3.08,2.6a27.17,27.17,0,0,1,5.21,6.67,28.8,28.8,0,0,1,2.22,4.36c.69,1.75,1.47,3.48,2.21,5.21a37.16,37.16,0,0,1,2.35,8.89,28.63,28.63,0,0,1,.34,3.06c.05.79-.06,1.59-.06,2.38a21,21,0,0,1,.07,2.24,17.52,17.52,0,0,1-.37,3.05,1.17,1.17,0,0,1-1.82.86,18.62,18.62,0,0,0-4.85-1.3,12.51,12.51,0,0,1-2.66-.11,18.58,18.58,0,0,1-3.35-.5l-4.68-.83c-.63-.11-1.25-.25-1.89-.33a5.21,5.21,0,0,0-.87.08,10.62,10.62,0,0,1-1.78,0,1.3,1.3,0,0,1-1.28-1.52,4.4,4.4,0,0,1,.08-.89c.3-1.2.64-2.4.94-3.6.39-1.6.75-3.19,1.12-4.79.57-2.52.94-5.08,1.73-7.55a38.39,38.39,0,0,1,1.17-5.07c.45-2.09,1-4.15,1.51-6.22.27-1.14.31-2.32.55-3.48a11.31,11.31,0,0,0-.1-2.65C192.7,702.69,192.72,702.4,192.72,701.82Z" transform="translate(-116.68 -299.77)"/><path class="cls-2" d="M633.48,573.7a4,4,0,0,1-.64-.75,25,25,0,0,1-2-5.9c-.23-1.3-.27-2.64-.41-4-.06-.59-.22-1.17-.23-1.75s.12-1.19.15-1.78a3.64,3.64,0,0,0-.1-1,2.09,2.09,0,0,1,0-1.31,1.52,1.52,0,0,0,.13-.58,32.74,32.74,0,0,1,.84-6.15,39.15,39.15,0,0,1,2-7.15,38.06,38.06,0,0,1,5.48-9.85c.12-.16.22-.33.35-.48.65-.72.85-.72,1.81-.29a17.52,17.52,0,0,1,3.66,2.55c1.38,1.13,2.67,2.38,4,3.53,1.11.92,2.28,1.76,3.43,2.63a54,54,0,0,1,4.94,3.84,3.82,3.82,0,0,1,1.15,1.47c-.89,1-1.75,2-2.7,2.94-2,2-4.07,4-6.09,6-1,1-2,2-3,3-2,2-4,4-5.9,6.14a72.83,72.83,0,0,0-6,7.94,6.24,6.24,0,0,1-.53.71A2.68,2.68,0,0,1,633.48,573.7Z" transform="translate(-116.68 -299.77)"/><path class="cls-3" d="M394.41,844.63c-.16-.27-.32-.51-.44-.76a39.74,39.74,0,0,0-4.07-6.26c-1.52-2-3.08-3.92-4.61-5.89-.45-.59-.9-1.19-1.32-1.81a50,50,0,0,0-6.44-7.65c-2-2-4-4.15-6-6.25a2.83,2.83,0,0,1-.94-1.43,21,21,0,0,0,5.59-1.15,8.57,8.57,0,0,1,3.42-.07c2.36.36,4.72.77,7.08,1.12a40.76,40.76,0,0,1,15.12,5.29c2.14,1.28,4.24,2.61,6.34,4a12.25,12.25,0,0,1,1.73,1.41,2,2,0,0,1,.12,2.71,11.6,11.6,0,0,1-1.12,1.2,44.86,44.86,0,0,0-5.68,5.93c-1.62,2-3.24,3.91-4.92,5.82-1.08,1.24-2.26,2.39-3.4,3.57A2.06,2.06,0,0,1,394.41,844.63Z" transform="translate(-116.68 -299.77)"/><path class="cls-2" d="M187.11,465.25a2.72,2.72,0,0,1,.28,2.64c-.12.3,0,.68-.08,1a27.26,27.26,0,0,1-1.46,5.11,38.24,38.24,0,0,1-2.92,5.33,9.2,9.2,0,0,0-.67,1.33c-.38.81-.73,1.64-1.15,2.43a8.19,8.19,0,0,1-2.3,2.5c-.93.74-1.83,1.53-2.74,2.31-1.43,1.23-2.85,2.48-4.3,3.69a26.7,26.7,0,0,1-4.17,2.6c-1,.59-2,1.28-3,1.92-.75.48-1.49,1-2.15,1.41a2,2,0,0,1-1.32-.89,13.75,13.75,0,0,1-1.42-2.61c-.05-.14-.06-.29-.12-.43-.87-2-1.75-4-2.62-6-.59-1.36-1.15-2.74-1.74-4.1a10.38,10.38,0,0,0-1-2.14c-1.09-1.46-1-3.17-1.25-4.81-.13-1.11.33-1.58,1.41-1.7,1.58-.18,3.11-.59,4.66-.91,3.11-.65,6.14-1.64,9.23-2.35,1.3-.31,2.64-.5,3.94-.82a58.09,58.09,0,0,0,8.19-2.69c1.71-.71,3.22-1.75,4.87-2.53C185.82,465.25,186.37,464.87,187.11,465.25Z" transform="translate(-116.68 -299.77)"/><path class="cls-2" d="M158.21,583.09a5,5,0,0,1,1.14,2.06,39.34,39.34,0,0,1,1.74,8.11,18,18,0,0,0,.39,2.17,1.31,1.31,0,0,1,0,.44,16.63,16.63,0,0,0,0,5,8.4,8.4,0,0,1-.25,1.9c-.2,1.9-.55,3.79-.85,5.69a37.79,37.79,0,0,1-1.63,6.16c-.25.75-.53,1.5-.83,2.24a29.07,29.07,0,0,1-4,6.63c-.49.64-1,1.28-1.45,1.9a.74.74,0,0,1-1.06.21q-1-.64-1.95-1.38c-1.83-1.44-3.63-2.92-5.46-4.36q-4.09-3.23-8.23-6.41a4.8,4.8,0,0,1-1.57-2.21,5.77,5.77,0,0,1,1.64-2.38c1.25-1.27,2.49-2.56,3.74-3.84.62-.64,1.31-1.22,1.89-1.89a32.42,32.42,0,0,1,3.32-3.21c1.12-1,2.32-1.87,3.48-2.8a4.64,4.64,0,0,0,.66-.59,52.11,52.11,0,0,0,4.19-5.61,29.11,29.11,0,0,1,2.64-3.42A7.73,7.73,0,0,0,158.21,583.09Z" transform="translate(-116.68 -299.77)"/><path class="cls-2" d="M631.23,660.43a5,5,0,0,1,1.6,2.64A84.67,84.67,0,0,0,636.75,674c.42,1,.86,1.9,1.21,2.88.45,1.26.85,2.55,1.21,3.83a1.76,1.76,0,0,1-1.84,2.34,7,7,0,0,0-1.44.17c-2.57.55-5.11,1.24-7.63,2-1.9.56-3.85,1-5.77,1.49-2.07.53-4.17,1-6.2,1.65a35.61,35.61,0,0,0-5.65,2.26,15.7,15.7,0,0,1-4.35,1.51,3.12,3.12,0,0,1-.44,0,.68.68,0,0,1-.72-.61,1.38,1.38,0,0,1,0-.44c.22-1.12.42-2.25.68-3.36a22.92,22.92,0,0,1,.68-2.28c.18-.56.42-1.11.64-1.66l1.56-3.88a24.69,24.69,0,0,1,4.18-7,39.59,39.59,0,0,1,5.26-4.85c1.34-1.1,2.73-2.16,4.17-3.13,1.64-1.11,3.35-2.13,5.07-3.13a7,7,0,0,1,1.93-1.09A5.91,5.91,0,0,1,631.23,660.43Z" transform="translate(-116.68 -299.77)"/><path class="cls-2" d="M535.63,373.25a18.33,18.33,0,0,1,4.66-1.13,27.34,27.34,0,0,1,3.26-.13,30,30,0,0,0,6.19-.55c1.65-.31,3.32-.52,5-.7a9.71,9.71,0,0,1,1.94.06,1.84,1.84,0,0,1,1.37.79,1.48,1.48,0,0,1,.35.79c.09,3.18.35,6.37.15,9.54-.27,4-.08,8.06-.17,12.09a18.06,18.06,0,0,0,.17,2.06,1.14,1.14,0,0,1,0,.45c-.35.86.1,1.65.23,2.46.15,1,.51,1.92.7,2.9a14.18,14.18,0,0,1,0,4.41.79.79,0,0,1-1.23.57,33.7,33.7,0,0,1-6.89-4.64c-1.38-1.28-2.9-2.41-4.37-3.6a5.42,5.42,0,0,0-.87-.57,10.4,10.4,0,0,1-4.64-5.28c-1.18-2.67-2.41-5.33-3.46-8.07a50.91,50.91,0,0,1-2.58-9.3A3.72,3.72,0,0,1,535.63,373.25Z" transform="translate(-116.68 -299.77)"/><path class="cls-2" d="M273.74,375.4a1.47,1.47,0,0,1-.48,1.07c-.79.82-1.58,1.65-2.4,2.44-1.14,1.11-2.27,2.24-3.48,3.27a41.42,41.42,0,0,1-6.13,4.18,45.91,45.91,0,0,1-7.63,3.3,26.83,26.83,0,0,1-3.15.89,34.07,34.07,0,0,1-4.23.75,7.89,7.89,0,0,1-2.61.19,1.86,1.86,0,0,0-.74,0,11.1,11.1,0,0,1-5,0,4,4,0,0,0-1,0,7.3,7.3,0,0,1-2.84-.61,2.59,2.59,0,0,1-.36-.31c-.31-1.51.4-2.71.75-4a4.44,4.44,0,0,0,.3-2.15c-.11-.59.24-1.26-.2-1.85-.05-.06,0-.19,0-.28a38.94,38.94,0,0,1,1-7.6,13.62,13.62,0,0,0,.34-3.24c0-.74,0-1.49.06-2.23s.35-.92,1-1a3.11,3.11,0,0,1,1.45.13c2.27.72,4.55,1.42,6.83,2.08,2,.57,3.94,1.06,5.9,1.61,1.11.3,2.2.64,3.3,1a66.08,66.08,0,0,0,9.83,2.17,21,21,0,0,0,3,.07h6.13A1.65,1.65,0,0,1,273.74,375.4Z" transform="translate(-116.68 -299.77)"/><path class="cls-3" d="M159.59,552.76a8.45,8.45,0,0,1,1,2.69,23.42,23.42,0,0,1,.68,4.87,46.74,46.74,0,0,1-.61,9.08,40.71,40.71,0,0,1-2.24,7.73,59.43,59.43,0,0,1-5,9.82c-.56.88-1.23,1.69-1.85,2.53-.77,1-1.55,2.08-2.33,3.11a6.51,6.51,0,0,1-.46.58.78.78,0,0,1-1.19.09,9.71,9.71,0,0,1-.88-.81l-11.11-11.09L133,578.71a6.37,6.37,0,0,1-.6-.67,1.49,1.49,0,0,1,0-2,5.69,5.69,0,0,1,1-.94c1.52-1.22,3-2.46,4.58-3.61,2.8-2.07,5.65-4.09,8.47-6.14,3.35-2.43,6.46-5.16,9.56-7.9a10.71,10.71,0,0,0,1.85-2.52c.36-.58.76-1.16,1.17-1.71A2.42,2.42,0,0,1,159.59,552.76Z" transform="translate(-116.68 -299.77)"/><path class="cls-2" d="M624.44,512.92c-.49-.54-.85-.87-1.14-1.26a22.21,22.21,0,0,1-2.6-4.17c-.49-1.09-1.13-2.11-1.53-3.22A65.15,65.15,0,0,1,616,491.89a8.29,8.29,0,0,1-.18-1.3,2.65,2.65,0,0,0-.14-1.31c.29-1.24-.14-2.47-.08-3.71a25.91,25.91,0,0,1,1.61-8.29c.57-1.43,1.11-2.88,1.65-4.32.16-.42.25-.86.4-1.29s.48-.66,1-.45c1.72.65,3.42,1.36,5.17,1.95s3.75,1.34,5.6,2.09c1.52.62,3,1.28,4.51,2a9.65,9.65,0,0,0,3,1,3.09,3.09,0,0,1,2,1.06,2.64,2.64,0,0,1-.35,2.28c-1.2,2-2.37,4-3.51,6.07-1.28,2.29-2.52,4.6-3.76,6.91a5.05,5.05,0,0,0-.37,1,4.82,4.82,0,0,1-1.94,2.56c-2.23,1.57-1.91,1.49-2.65,3.77-.46,1.42-1,2.83-1.46,4.23a53.74,53.74,0,0,0-1.65,5.42C624.76,511.89,624.63,512.26,624.44,512.92Z" transform="translate(-116.68 -299.77)"/><path class="cls-3" d="M209.75,402.54c0-3.19,0-6.38,0-9.57a5.35,5.35,0,0,1,.26-1.47,1.23,1.23,0,0,1,1.47-.95,7.9,7.9,0,0,1,1.59.41,4.61,4.61,0,0,0,1.76.28,40,40,0,0,1,7.87.76c2.69.5,5.38,1,8.09,1.46,2,.31,4,.44,5.94.65l2.09.22a13.49,13.49,0,0,0,5.75-.57,2.11,2.11,0,0,1,1.74.05.71.71,0,0,1,.34,1,6.47,6.47,0,0,1-.45.77,37.89,37.89,0,0,1-11,11.08A64.33,64.33,0,0,1,226,411.3a22.86,22.86,0,0,1-4.83,1.55,13.52,13.52,0,0,1-4.16.28,5.58,5.58,0,0,0-2.9.54,4.66,4.66,0,0,1-2.47.42c-1.5-.21-1.9-.63-1.92-2.12,0-.85,0-1.7,0-2.55v-6.88Z" transform="translate(-116.68 -299.77)"/><path class="cls-2" d="M585.62,415.72c1,.35,2.16.74,3.29,1.1a4.05,4.05,0,0,0,3,.15c1,.27,1.95-.45,2.9.08a4,4,0,0,1,1.74.09,20.06,20.06,0,0,0,2.19.39c1.61.27,3.22.58,4.83.82a5.33,5.33,0,0,0,1.49-.05c1-.14,1.55.27,1.43,1.25a15.09,15.09,0,0,1-.36,1.75c-.41,1.74-.8,3.49-1.23,5.22-.38,1.5-.8,3-1.17,4.48s-.69,2.9-1,4.34c-.66,2.7-1.35,5.39-2,8.1-.47,2-.87,4-1.29,6a26.1,26.1,0,0,0-.29,5.15c0,.2,0,.39,0,.65a2.64,2.64,0,0,1-1.53-.87,54.06,54.06,0,0,1-6-6.68c-.6-.79-1.11-1.64-1.66-2.46-.67-1-1.32-2-2-3a12.24,12.24,0,0,1-2.13-4.38c-.58-2.32-1.34-4.59-1.95-6.89a32.23,32.23,0,0,1-.72-3.8c-.1-.78,0-1.59,0-2.38a11.21,11.21,0,0,1,.5-4.23,13.1,13.1,0,0,0,.62-3.06A1.75,1.75,0,0,1,585.62,415.72Z" transform="translate(-116.68 -299.77)"/><path class="cls-3" d="M432.56,813.78c.06-.12.09-.31.19-.37,1.93-1.14,3.75-2.49,5.94-3.12a10.81,10.81,0,0,1,2.62-.54,55.39,55.39,0,0,0,7.25-1,31.64,31.64,0,0,1,4-.48,14.29,14.29,0,0,1,2.83.28c2.9.46,5.81.91,8.69,1.46a21.17,21.17,0,0,1,7.73,3.08,14.85,14.85,0,0,1,1.19.9,1.75,1.75,0,0,1,.45,2.17c-.17.42-.39.81-.6,1.21l-6.71,13a20.28,20.28,0,0,1-1,1.84,8.42,8.42,0,0,1-1.22,1.5,2.39,2.39,0,0,1-3,.26,7.47,7.47,0,0,1-1.29-1,80.4,80.4,0,0,0-6.31-5.5c-1.16-1-2.32-1.89-3.44-2.89a38.92,38.92,0,0,0-9.58-6.32,21.07,21.07,0,0,1-3.2-1.9c-.73-.52-1.44-1.08-2.22-1.53S433.35,814.15,432.56,813.78Z" transform="translate(-116.68 -299.77)"/><path class="cls-3" d="M278.77,372.44a15.57,15.57,0,0,0-5.14.63,10.56,10.56,0,0,1-3.41.24,3,3,0,0,0-1,0,7.7,7.7,0,0,1-3.41-.11L261,372.13c-.79-.17-1-.45-.82-1.28.36-1.75.77-3.5,1.17-5.25.84-3.74,1.71-7.47,2.53-11.22a26.28,26.28,0,0,0,.31-2.67,6.21,6.21,0,0,1,.13-.73,1.84,1.84,0,0,1,2.77-1.49,2.57,2.57,0,0,1,.52.27,25.42,25.42,0,0,0,5.18,2.28c3.39,1.32,6.75,2.69,10.11,4.09s6.68,2.84,10.13,4a10.84,10.84,0,0,0,4.11.54c1.1-.06,2.2,0,3.29,0a.82.82,0,0,1,.84.51,1,1,0,0,1-.39,1.05,1.25,1.25,0,0,1-.24.16,12.46,12.46,0,0,0-3.76,2.92,15.78,15.78,0,0,1-1.53,1.42,7.15,7.15,0,0,1-1.92,1.12c-2.27.76-4.45,1.72-6.66,2.65a22.16,22.16,0,0,1-5.41,1.66C280.39,372.29,279.45,372.37,278.77,372.44Z" transform="translate(-116.68 -299.77)"/><path class="cls-3" d="M309.11,800a1.63,1.63,0,0,1,1.45-.35c.63.12,1.26.28,1.88.46a7.8,7.8,0,0,0,2.64.35,16.31,16.31,0,0,1,7.84,1.59,51.48,51.48,0,0,1,9.9,5.81c.95.73,1.95,1.39,2.94,2.07a19.51,19.51,0,0,1,4.26,3.95c1.66,2.12,3.24,4.29,4.86,6.45a3.84,3.84,0,0,1,.32.5,1.31,1.31,0,0,1-.47,1.95,38.71,38.71,0,0,1-4.43,2.77,68.69,68.69,0,0,0-6.9,3.87c-1.93,1.14-3.9,2.21-5.86,3.3a6.27,6.27,0,0,1-1,.43c-.72.27-1.13.18-1.49-.52-.66-1.29-1.28-2.6-1.82-3.94-.94-2.35-1.8-4.74-2.7-7.12-.2-.51-.4-1-.64-1.51a61.36,61.36,0,0,1-3.65-9.31,13,13,0,0,0-2.45-4.59c-.73-.88-1.47-1.76-2.17-2.67C310.8,802.36,310,801.19,309.11,800Z" transform="translate(-116.68 -299.77)"/><path class="cls-3" d="M422.17,343.22a3.59,3.59,0,0,1-.7.19,20.09,20.09,0,0,0-5,.81,26.66,26.66,0,0,1-2.63.54,9.37,9.37,0,0,1-4.42-.49,35.91,35.91,0,0,0-5.52-1.27c-1.81-.34-3.63-.63-5.43-1a12.19,12.19,0,0,1-3.7-1.56q-5.85-3.46-11.67-7a6.53,6.53,0,0,1-1.19-.9,1.54,1.54,0,0,1-.18-2.27,9.78,9.78,0,0,1,1.1-1.22L393.06,319c.85-.84,1.63-1.75,2.48-2.59a13.66,13.66,0,0,1,1.59-1.35.85.85,0,0,1,1.21.16,3.32,3.32,0,0,1,.59.85,19.67,19.67,0,0,0,4.06,5.51,83,83,0,0,1,6.64,7.87c1.65,2.13,3.23,4.32,5,6.31,2.21,2.43,4.63,4.67,7,7C421.74,342.87,421.89,343,422.17,343.22Z" transform="translate(-116.68 -299.77)"/><path class="cls-2" d="M454,348.14a7,7,0,0,1-3.84.42c-1.07-.06-2.12-.58-3.23-.22-1.51-.46-3.11-.33-4.64-.7-1.3-.31-2.64-.46-3.94-.76a44.92,44.92,0,0,1-7.43-2.62c-1.7-.73-3.26-1.7-5-2.42a14.28,14.28,0,0,1-2.91-1.49,2.82,2.82,0,0,0-.81-.36,8.4,8.4,0,0,1-4-2.75,7.12,7.12,0,0,1-1.36-2.12,3,3,0,0,0-1-1.32c-.23-.19-.43-.41-.65-.61-1-.88-1-.88-1-2.3a2.48,2.48,0,0,1,1.47-1.2,9.27,9.27,0,0,0,2.83-1.88q3.56-3,7.07-5.95l5-4.24c1.16-1,1.58-.93,2.48.38.42.61.74,1.29,1.12,1.92l5.14,8.72a75.08,75.08,0,0,1,3.68,6.63c.42.9.83,1.8,1.31,2.67a6.17,6.17,0,0,0,1.06,1.43c2.58,2.63,5.19,5.24,7.79,7.85C453.42,347.46,453.62,347.74,454,348.14Z" transform="translate(-116.68 -299.77)"/><path class="cls-3" d="M161.38,615.4c1,2.26,1.94,4.45,2.88,6.64a15.06,15.06,0,0,1,1.3,5.34,23.7,23.7,0,0,0,.43,3.56,15,15,0,0,0,.86,2.69,3.82,3.82,0,0,1,.23,2.19c-.54,2.94-1,5.88-1.61,8.81a23.62,23.62,0,0,1-2.22,6.64,7.06,7.06,0,0,0-.77,2.25,4.27,4.27,0,0,1-1.18,2.68,6.33,6.33,0,0,1-.69.57,1,1,0,0,1-1.13.08c-.26-.14-.54-.24-.8-.39q-7.47-4.26-14.93-8.52a9.85,9.85,0,0,1-1.48-1,2.37,2.37,0,0,1-.65-3.43,12.56,12.56,0,0,1,.9-1.38q4.3-5.93,8.62-11.84a5.66,5.66,0,0,1,.69-.78,40.82,40.82,0,0,0,8.87-13.19,9.09,9.09,0,0,1,.52-.9S161.31,615.41,161.38,615.4Z" transform="translate(-116.68 -299.77)"/><path class="cls-3" d="M491.33,796.35c.6-.62.92-1,1.27-1.31a28.84,28.84,0,0,1,8.07-5.32c2.62-1.21,5.32-2.24,8-3.38a3.5,3.5,0,0,1,1.45-.28,55,55,0,0,0,7.12-.77c2-.26,4.06-.47,6.1-.58a12.69,12.69,0,0,1,4.56.64,10.79,10.79,0,0,0,4.09.72,1.49,1.49,0,0,1,.48.16,9.22,9.22,0,0,1-.25,2.62c-.53,3.3-1.64,6.46-2.32,9.73-.55,2.68-1.21,5.33-2,7.95a8.61,8.61,0,0,1-.52,1.39,1.57,1.57,0,0,1-2,.88,7.47,7.47,0,0,1-1.12-.4c-3.35-1.41-6.7-2.82-10-4.26-1.64-.72-3.28-1.45-4.88-2.26a72.82,72.82,0,0,0-13.93-5.3,9.52,9.52,0,0,0-3-.23Z" transform="translate(-116.68 -299.77)"/><path class="cls-3" d="M360.23,343.87c-.15.17-.2.26-.28.3-2.3,1.07-4.59,2.18-6.91,3.19a16.71,16.71,0,0,1-6.1,1.34,31.27,31.27,0,0,0-3.85.43,28.78,28.78,0,0,1-8.34,0,43.31,43.31,0,0,1-8.72-1.95,28,28,0,0,1-6-2.93,7.47,7.47,0,0,1-.74-.51,1.44,1.44,0,0,1-.56-1.95,5.28,5.28,0,0,1,.29-.69c2.4-4.87,4.79-9.74,7.21-14.6a8.66,8.66,0,0,1,1.1-1.76,2.45,2.45,0,0,1,3.19-.77,11.26,11.26,0,0,1,3,2c1.75,1.48,3.49,3,5.22,4.47a82.78,82.78,0,0,0,13.15,9.32,56.07,56.07,0,0,0,7.94,3.79A3.6,3.6,0,0,1,360.23,343.87Z" transform="translate(-116.68 -299.77)"/><path class="cls-3" d="M174.3,492.75a2,2,0,0,1,.46,1.7,3.61,3.61,0,0,1-.24.87,10.5,10.5,0,0,0-.83,3.91,25.34,25.34,0,0,1-2.07,8.38,52.74,52.74,0,0,1-4.7,8.48c-.49.75-1,1.48-1.49,2.24a21.77,21.77,0,0,1-5.52,5.84c-1.85,1.35-3.74,2.65-5.62,4a3.72,3.72,0,0,1-.64.38,1.36,1.36,0,0,1-1.73-.43,7.31,7.31,0,0,1-.58-.87c-2.2-3.56-4.38-7.13-6.58-10.7a16.42,16.42,0,0,1-1.6-3.19,6.87,6.87,0,0,0-1.4-2.62,2.55,2.55,0,0,1-.39-.63,1.28,1.28,0,0,1,.31-1.63,4,4,0,0,1,1.14-.69c3.62-1.4,7.24-2.8,10.88-4.16,1.63-.61,3.31-1.11,5-1.69a23.12,23.12,0,0,0,6.83-3.62,19.15,19.15,0,0,1,2.68-1.63c.83-.46,1.7-.83,2.55-1.24a9.62,9.62,0,0,0,3.11-2.29A3.35,3.35,0,0,1,174.3,492.75Z" transform="translate(-116.68 -299.77)"/><path class="cls-3" d="M587.83,719.39a6.79,6.79,0,0,1,.19-.68c1-2.49,2-5,3.06-7.46a19.17,19.17,0,0,1,3-4.94A28.78,28.78,0,0,0,596,703.8a13.09,13.09,0,0,1,2.41-2.83c1.59-1.36,3.16-2.75,4.8-4a21.19,21.19,0,0,1,7.27-3.73,20.59,20.59,0,0,0,3.44-1.42c.62-.31,1.26-.6,1.9-.87a3.78,3.78,0,0,1,1-.3c2-.32,2.24,0,2.62,1.7,1,4.56,2.09,9.12,3.12,13.68a17.54,17.54,0,0,0,.93,3.13c.78,1.83.22,3.3-1.81,4a12.84,12.84,0,0,1-2.78.48c-1.63.2-3.27.35-4.9.55a73.22,73.22,0,0,0-7.6,1.58,11.71,11.71,0,0,1-2.2.34,31.12,31.12,0,0,1-3.74,0,18.49,18.49,0,0,0-10.08,2.17c-.62.32-1.23.66-1.85,1A4.58,4.58,0,0,1,587.83,719.39Z" transform="translate(-116.68 -299.77)"/><path class="cls-3" d="M617.22,665.49a3.26,3.26,0,0,1,0-2.7,4.12,4.12,0,0,1,.39-.63,2.84,2.84,0,0,0,.51-1.83,22.92,22.92,0,0,1,2-9.72,51.41,51.41,0,0,1,3.55-6.73c1-1.65,2-3.31,3.18-4.88a30.51,30.51,0,0,1,9.92-8.92,7,7,0,0,1,1.2-.59,1.43,1.43,0,0,1,1.84.54c.15.2.29.4.43.61,3.06,4.72,6.07,9.47,8.82,14.39.34.61.64,1.24.95,1.86a1.44,1.44,0,0,1-.39,1.88,7.52,7.52,0,0,1-1.63,1c-2.66,1.24-5.32,2.49-8,3.65-4.94,2.12-9.87,4.27-14.6,6.84-1.44.79-2.88,1.58-4.33,2.35a11.16,11.16,0,0,0-2.63,2C618.13,664.93,617.85,665.38,617.22,665.49Z" transform="translate(-116.68 -299.77)"/><path class="cls-3" d="M210.9,727.45c.44.3.69.45.91.63a35.77,35.77,0,0,0,5,3.31,10.57,10.57,0,0,1,4,3.75,62,62,0,0,0,3.7,5.25,21.47,21.47,0,0,1,2.68,5c.9,2.15,1.79,4.32,2.72,6.46a6.11,6.11,0,0,1,.42,2.49,22.25,22.25,0,0,0,.47,4.75c.11.48.26,1,.39,1.44s.35,1,.45,1.58a1.85,1.85,0,0,1-1.32,2.22,7.56,7.56,0,0,1-2.05.32c-2.1.05-4.19.06-6.29.06l-11.67-.05a12.21,12.21,0,0,1-1.35-.07c-1.1-.14-1.41-.57-1.13-1.61a9.79,9.79,0,0,1,.49-1.41,4,4,0,0,0,.29-1.61,37.22,37.22,0,0,1,.79-7c.5-2.8,1.07-5.58,1.43-8.4a48.11,48.11,0,0,0,.21-5.38c0-1.74,0-3.49,0-5.23,0-2-.09-3.89-.14-5.83C210.85,728,210.88,727.86,210.9,727.45Z" transform="translate(-116.68 -299.77)"/><path class="cls-2" d="M462.18,807c.47-.38.84-.71,1.24-1a41.3,41.3,0,0,1,3.93-2.44,35.45,35.45,0,0,1,4.69-1.91c1.59-.54,3.23-.94,4.86-1.37a6.34,6.34,0,0,1,1.31-.15,25.26,25.26,0,0,1,3.37-.29,5.67,5.67,0,0,0,.88-.13,8.32,8.32,0,0,1,1.32,0,8.84,8.84,0,0,0,3.4-.09,1.69,1.69,0,0,1,.59,0,28.43,28.43,0,0,0,3.69-.1c2.47-.17,4.77.58,7.13,1.11a38.13,38.13,0,0,0,4.33,1.1,2.35,2.35,0,0,1,.82.31,1.19,1.19,0,0,1,.67,1.7c-.27.74-.53,1.49-.87,2.21-.89,1.84-1.44,3.8-2.16,5.7a87.59,87.59,0,0,1-3.29,8.46,9,9,0,0,1-1.26,2.35,4.43,4.43,0,0,1-.89.79,1.55,1.55,0,0,1-1.54.13,43.73,43.73,0,0,1-3.92-2.15q-4.61-2.61-9.19-5.24c-2.07-1.19-4.11-2.42-6.18-3.61-1.46-.85-2.9-1.76-4.43-2.47a21.64,21.64,0,0,0-4.31-1.6c-1.16-.27-2.31-.57-3.47-.88A5,5,0,0,1,462.18,807Z" transform="translate(-116.68 -299.77)"/><path class="cls-2" d="M518.72,782.31a6.07,6.07,0,0,1,1.38-1.81,53.9,53.9,0,0,1,5-4.92,33.12,33.12,0,0,1,4.25-2.75c1.35-.83,2.79-1.51,4.18-2.28a18.64,18.64,0,0,1,4.68-1.85c1.94-.45,3.88-.87,5.81-1.3a24.65,24.65,0,0,1,3.94-.6,21.65,21.65,0,0,1,2.79,0,18.69,18.69,0,0,0,4-.12,17.82,17.82,0,0,1,3.58,0,1.28,1.28,0,0,1,1.16,1.59,11.48,11.48,0,0,1-.31,1.15,38.26,38.26,0,0,0-1.37,7c-.18,1.56-.35,3.13-.59,4.68-.2,1.27-.49,2.52-.77,3.78a20.49,20.49,0,0,0-.56,3.66c0,.81-.18.94-1,1a6,6,0,0,1-2.06-.2c-3.32-1-6.68-1.89-10-2.89-1.85-.56-3.65-1.26-5.48-1.9a12.23,12.23,0,0,0-1.42-.44,37.4,37.4,0,0,0-5.37-1c-.87,0-1.75-.11-2.62-.19-.29,0-.58-.11-.87-.14a3,3,0,0,0-1.17-.08,4.4,4.4,0,0,1-1.91,0c-1.08-.1-2.18-.08-3.27-.1-.5,0-1,0-1.49,0A2,2,0,0,1,518.72,782.31Z" transform="translate(-116.68 -299.77)"/><path class="cls-2" d="M389.89,341.3a3.06,3.06,0,0,1-.53.37,30.07,30.07,0,0,1-7.72,2.16c-.77.11-1.56.05-2.34.11s-1.28.2-1.92.21-1.18-.1-1.77-.14a11.81,11.81,0,0,0-1.19,0c-.19,0-.41.13-.58.07a19.14,19.14,0,0,0-3.44-.49c-1.13-.2-2.25-.4-3.36-.64a34,34,0,0,1-3.48-.85c-1.84-.61-3.64-1.31-5.46-2a46.26,46.26,0,0,1-6.41-3.12,4.78,4.78,0,0,1-1.48-1.24,1.05,1.05,0,0,1-.2-1.11,10.39,10.39,0,0,1,.63-1.35c.59-1,1.18-2,1.85-2.89,1.61-2.21,3.3-4.37,4.9-6.58a56.73,56.73,0,0,0,3.48-5.2,6.29,6.29,0,0,1,1.86-2.3c.67-.43,1-.47,1.62,0a29.82,29.82,0,0,1,2.71,2.56c2,2.25,4,4.56,6,6.85a78.23,78.23,0,0,0,5.67,6.13c1.42,1.32,2.91,2.57,4.42,3.79,2,1.63,4.06,3.19,6.09,4.8A6,6,0,0,1,389.89,341.3Z" transform="translate(-116.68 -299.77)"/><path class="cls-2" d="M314.24,813.18a3.08,3.08,0,0,1-2.41,2,49.06,49.06,0,0,0-8.88,3.06c-1.48.68-3,1.4-4.47,2a16.32,16.32,0,0,1-3.65,1.22,2.49,2.49,0,0,1-2.79-1.7,14.35,14.35,0,0,1-.73-3.16c-.17-1.28-.36-2.55-.62-3.81s-.61-2.3-.91-3.45c-.83-3.22-1.58-6.47-2.51-9.66a30.77,30.77,0,0,0-5.44-10.88,2.42,2.42,0,0,1-.37-.64c-.24-.64,0-1.19.83-1.12a28.69,28.69,0,0,1,6.91,1.73c1.5.54,3,1.18,4.41,1.83a31.68,31.68,0,0,1,3.17,1.64c1.49.9,3,1.84,4.38,2.85,1,.75,2,1.62,3,2.47a23.72,23.72,0,0,1,3.68,3.68,38.54,38.54,0,0,1,2.6,4c.87,1.51,1.62,3.09,2.38,4.65C313.3,811,313.73,812,314.24,813.18Z" transform="translate(-116.68 -299.77)"/><path class="cls-2" d="M330.29,350.55c-.1.28-.12.61-.26.68-2.62,1.19-5.06,2.71-7.55,4.14a8.32,8.32,0,0,1-1.94.76c-1,.27-2,.43-3.05.68a17.55,17.55,0,0,0-2,.61,20.28,20.28,0,0,1-5.49,1.15c-.3,0-.59.11-.88.15a2.09,2.09,0,0,1-.73.09,27.6,27.6,0,0,0-5.22-.17c-1.24,0-2.49,0-3.74.05a2.82,2.82,0,0,1-.58,0,39.34,39.34,0,0,1-4.64-1.05,24.94,24.94,0,0,0-5.2-1.24,4.11,4.11,0,0,1-.85-.23,1,1,0,0,1-.68-1.05,4.66,4.66,0,0,1,.33-1.43c.65-1.5,1.36-3,2-4.45.37-.81.71-1.64,1.07-2.45.79-1.76,1.56-3.53,2.36-5.29s1.56-3.31,2.36-5a3.55,3.55,0,0,1,.43-.61,1.17,1.17,0,0,1,1.33-.42,6,6,0,0,1,.84.29c2,.8,4,1.53,5.93,2.41,1.44.66,2.79,1.51,4.17,2.29,1.77,1,3.5,2,5.36,2.88,1.66.76,3.23,1.72,4.84,2.6s3.19,1.83,4.86,2.59a16.47,16.47,0,0,0,4.58,1.68C328.72,350.32,329.45,350.43,330.29,350.55Z" transform="translate(-116.68 -299.77)"/><path class="cls-2" d="M510.28,371.05a18.34,18.34,0,0,1-3.83-.89,29.45,29.45,0,0,1-4.28-1.68c-2.13-1.09-4.28-2.12-6.43-3.17-.93-.46-1.88-.9-2.8-1.38a28.66,28.66,0,0,1-9.8-8.57,20,20,0,0,1-2.72-4.79,8.15,8.15,0,0,0-1.45-2.41,6.28,6.28,0,0,1-1.53-2.69,1.19,1.19,0,0,1,.4-1.34,8.59,8.59,0,0,1,1.62-1c1.21-.55,2.47-1,3.69-1.55,1.41-.61,2.81-1.24,4.2-1.87,2.44-1.11,4.89-2.19,7.3-3.35a6.69,6.69,0,0,1,2.88-.49,1.18,1.18,0,0,1,.79.36,3.6,3.6,0,0,1,1.3,2.11c.24,2.79,1.2,5.42,1.79,8.13.44,2,.88,4,1.45,5.93.67,2.28,1.37,4.54,2.26,6.76s1.71,4.34,2.65,6.47c.41,1,.92,1.87,1.42,2.78.31.57.71,1.08,1,1.65C510.36,370.3,510.61,370.62,510.28,371.05Z" transform="translate(-116.68 -299.77)"/><path class="cls-3" d="M255.68,770.84a3.38,3.38,0,0,1,1.44.14,26.54,26.54,0,0,1,9.6,4.35A55,55,0,0,1,278,786a32.17,32.17,0,0,1,5.57,10.5c.26.85.66,1.66,1,2.49.13.32.26.65.36,1a1,1,0,0,1-.62,1.32,11.22,11.22,0,0,1-1.28.41l-10.95,3c-1.3.35-2.61.66-3.91,1l-2.74.72a2.16,2.16,0,0,1-3-1.64,10.91,10.91,0,0,1-.47-2.34c-.32-3.17-.7-6.33-1.19-9.48-.65-4.24-1.49-8.44-2.41-12.63a56.28,56.28,0,0,0-2.54-8.42,5.88,5.88,0,0,1-.23-.71C255.58,771.09,255.64,771,255.68,770.84Z" transform="translate(-116.68 -299.77)"/><path class="cls-3" d="M580.77,430.21a5.47,5.47,0,0,1-.89-.41c-.91-.61-1.8-1.26-2.7-1.87s-1.87-1.33-2.87-1.88a4.52,4.52,0,0,1-2-2,69,69,0,0,0-3.92-6.35c-1.22-1.94-2.43-3.88-3.58-5.87a24.61,24.61,0,0,1-2.62-7.74c-.16-.83-.24-1.68-.41-2.5s-.41-1.65-.62-2.46-.4-1.34-.54-2a4.56,4.56,0,0,1-.07-1.33c.14-1.6.79-2.23,2.39-2.24,2.44,0,4.89,0,7.33,0h11.36a6,6,0,0,1,1.34.07,1.64,1.64,0,0,1,1.38,2.33,2.92,2.92,0,0,1-.25.54,9.28,9.28,0,0,0-1,4.48,13.24,13.24,0,0,0,.07,2.09,13.77,13.77,0,0,1-.71,6.77,40,40,0,0,0-1.64,13.57c0,1.89,0,3.79,0,5.68C580.89,429.41,580.82,429.74,580.77,430.21Z" transform="translate(-116.68 -299.77)"/><path class="cls-3" d="M536.43,387.55a21,21,0,0,1-8.24-3.34c-2.63-1.79-5.24-3.64-7.76-5.59a34.94,34.94,0,0,1-8.23-9.6c-.92-1.48-1.74-3-2.6-4.53a9,9,0,0,1-1.19-3.67,7.94,7.94,0,0,0-.65-2.44,1.23,1.23,0,0,1,.57-1.77,4.36,4.36,0,0,1,1.11-.41c4.34-.92,8.57-2.26,12.87-3.35,2.07-.52,4.18-.93,6.27-1.35.9-.19,1.33.1,1.5,1a26.67,26.67,0,0,1,.43,2.8q.62,6.18,1.19,12.36A66,66,0,0,0,536,385.9,2.64,2.64,0,0,1,536.43,387.55Z" transform="translate(-116.68 -299.77)"/><path class="cls-3" d="M613.56,484c-.38-.44-.78-.88-1.15-1.32a45.23,45.23,0,0,1-7.09-12.4c-.68-1.71-1.26-3.46-1.89-5.19a15.59,15.59,0,0,1-.76-3.65c-.11-1-.23-2.08-.37-3.11a8.67,8.67,0,0,0-1-3.11,3.7,3.7,0,0,1-.06-3.59,9,9,0,0,0,.87-3.75c0-.79.09-1.59.21-2.38a5.67,5.67,0,0,1,.47-1.55,1.65,1.65,0,0,1,1.55-1,9.57,9.57,0,0,1,2.21.18c3,.73,6,1.53,9,2.29,1.45.37,2.9.7,4.35,1.08a15.74,15.74,0,0,1,2,.64,7,7,0,0,0,3.46.73.55.55,0,0,1,.62.76,3,3,0,0,1-.22.56,119.36,119.36,0,0,0-6,14.47c-1.25,3.41-2.65,6.76-4.07,10.11a20.69,20.69,0,0,0-1.76,6.6c-.07.89,0,1.79,0,2.69,0,.28,0,.57,0,.86Z" transform="translate(-116.68 -299.77)"/><path class="cls-3" d="M630.69,543.14l-1.82-4.27a43.19,43.19,0,0,1-2.22-6.33,19.28,19.28,0,0,1-.69-5.17,4.68,4.68,0,0,0-.43-2.18,6.93,6.93,0,0,1-.52-1.4,3.82,3.82,0,0,1-.11-1.46c.91-4.34,1.58-8.73,2.83-13a32.29,32.29,0,0,1,2.7-6.62,4.74,4.74,0,0,1,.66-1,1.43,1.43,0,0,1,1.62-.45,5.34,5.34,0,0,1,.7.27c2.27,1.24,4.55,2.46,6.81,3.73a17.42,17.42,0,0,1,2.24,1.49,18.15,18.15,0,0,0,3.18,1.94c.89.44,1.8.86,2.66,1.36a6.57,6.57,0,0,1,2.75,2.92,7.52,7.52,0,0,1-.48.87c-3.43,4.59-6.84,9.2-10.31,13.77-1.41,1.86-3,3.63-4.41,5.47a26.29,26.29,0,0,0-4,6.79c-.3.78-.52,1.61-.78,2.41C631,542.52,630.87,542.73,630.69,543.14Z" transform="translate(-116.68 -299.77)"/><path class="cls-2" d="M443.3,822.12a3,3,0,0,1-.59,1.6c-2.07,3-4.29,6-6.61,8.81a73.6,73.6,0,0,0-4.73,6.52,3.33,3.33,0,0,1-2,1.74,4.85,4.85,0,0,1-1.87-1.13c-1.24-1.22-2.49-2.43-3.77-3.62L420,832.6c-.76-.71-1.61-1.32-2.39-2s-1.27-1.26-1.94-1.85c-2.85-2.49-5.45-5.24-8.23-7.8a15.68,15.68,0,0,0-5.19-3.42,3.59,3.59,0,0,1-.78-.56c.07-.15.07-.21.1-.22a29.76,29.76,0,0,1,5-1.45c1-.14,1.93-.44,2.9-.62a11.44,11.44,0,0,1,3.2-.3c.05,0,.11,0,.14,0,.95-.55,1.95-.15,2.92-.17a15.64,15.64,0,0,0,1.94,0,2.43,2.43,0,0,1,1.74.13.88.88,0,0,0,.43.09,31.24,31.24,0,0,1,7.56,1.16,51.53,51.53,0,0,1,9.81,3.47C439.31,820,441.29,821.06,443.3,822.12Z" transform="translate(-116.68 -299.77)"/><path class="cls-3" d="M582,756.6c0,2.74,0,5.48,0,8.23a10.35,10.35,0,0,1-.24,2.07.8.8,0,0,1-1,.73,4.39,4.39,0,0,1-1.45-.28,11.85,11.85,0,0,0-4.36-1,91.83,91.83,0,0,1-9.79-1.21c-1.33-.21-2.67-.36-4-.54-2-.26-4-.46-5.92-.81a29.47,29.47,0,0,0-6.57-.12,4.17,4.17,0,0,0-2,.66,2.36,2.36,0,0,1-.83.3,1,1,0,0,1-1-.53.84.84,0,0,1,.16-.83A38.71,38.71,0,0,1,560,750c2.07-1.08,4.12-2.23,6.22-3.25a16,16,0,0,1,8.4-1.69,6.45,6.45,0,0,0,2.5-.35,15,15,0,0,1,2.46-.61c1.51-.19,2,.22,2.22,1.71a24.49,24.49,0,0,1,.21,2.83C582,751.31,582,754,582,756.6Z" transform="translate(-116.68 -299.77)"/><path class="cls-3" d="M178.37,674.05c.31.3.63.59.92.91a32.33,32.33,0,0,1,4.51,6.49c1,1.79,1.86,3.63,2.78,5.45.78,1.55,1.54,3.12,2.35,4.67a3.71,3.71,0,0,1,.5,1.84,19.42,19.42,0,0,0,.58,4.28c.27,1.32.51,2.64.73,4a11.07,11.07,0,0,1-.1,3.72q-.6,3.54-1.26,7.06A10.79,10.79,0,0,1,189,714a1.64,1.64,0,0,1-1.7,1.21,6,6,0,0,1-1.9-.29,53.74,53.74,0,0,0-8.61-2.43c-1.85-.41-3.67-.91-5.47-1.48-1-.33-2.12-.52-3.19-.77-.29-.07-.59-.09-.87-.18a1.21,1.21,0,0,1-.83-1.65,4,4,0,0,1,.47-.92,31.69,31.69,0,0,0,3-6.15,67.28,67.28,0,0,1,3.45-7.77,29.41,29.41,0,0,0,2.54-7.32c.55-2.32,1-4.66,1.69-7a11.69,11.69,0,0,0,.5-5.16Z" transform="translate(-116.68 -299.77)"/><path class="cls-2" d="M150.51,677.74l1.18-.06,1.83-3.45c0-.09.06-.21.13-.27a14.5,14.5,0,0,0,2.31-3.44c.24-.38.4-.8.62-1.18.67-1.22,1.35-2.43,2-3.64,1.23-2.21,2.49-4.4,3.69-6.62s2-4.87,3.1-7.27c.51-1.13.94-2.3,1.37-3.46.18-.46.27-1,.41-1.43s.27-.95.43-1.54a3.67,3.67,0,0,1,.65.42,12.38,12.38,0,0,1,2.06,2.91,42.81,42.81,0,0,1,2.6,5.53,38,38,0,0,1,1.42,4.54c.32,1.39.77,2.77,1,4.18a24.81,24.81,0,0,1,.59,5.57c0,1.44.11,2.89,0,4.33a22.34,22.34,0,0,1-.52,4.23c-.63,2.71-1.28,5.41-1.93,8.11a2,2,0,0,1-2,1.72l-4.86-2.22c-2.5-1.12-5.13-1.89-7.69-2.84-1.62-.61-3.27-1.18-4.92-1.72a13,13,0,0,1-3.5-1.92.36.36,0,0,1-.1-.52Z" transform="translate(-116.68 -299.77)"/><path class="cls-3" d="M482.65,358.23c-1.41-.24-2.53-.47-3.66-.62s-2-.2-3-.27a20,20,0,0,1-5.14-.91,8.52,8.52,0,0,1-1.65-.7c-4-2.35-8-4.7-11.75-7.42a38,38,0,0,1-9.9-10.49,4.84,4.84,0,0,1-.41-.78,1.56,1.56,0,0,1,.37-1.79,5.67,5.67,0,0,1,1-.86c.88-.56,1.79-1.08,2.69-1.62,1.62-1,3.23-2,4.87-2.92,1.42-.83,2.88-1.59,4.29-2.43,1.21-.7,2.4-1.42,3.55-2.21,1.6-1.1,2.24-1,3.11.82s1.6,3.33,2.24,5.06c2,5.38,4.31,10.61,6.62,15.85.55,1.23,1.05,2.48,1.62,3.7a26.74,26.74,0,0,0,4.31,6.62C482.1,357.51,482.3,357.79,482.65,358.23Z" transform="translate(-116.68 -299.77)"/><path class="cls-2" d="M164.81,521.78a1.41,1.41,0,0,1,1.11.78,1.15,1.15,0,0,1,.12.71,19.52,19.52,0,0,0,0,4.89,7.59,7.59,0,0,1-.23,2.05c-.29,1.75-.59,3.49-.9,5.24-.08.44-.24.86-.33,1.3a39.7,39.7,0,0,1-2.12,6.49,30.24,30.24,0,0,1-1.88,3.56,59.7,59.7,0,0,1-7.17,9.51c-1.16,1.3-2.45,2.47-3.63,3.75a1.47,1.47,0,0,1-1.59.53,19.39,19.39,0,0,1-3.11-3.6,74.38,74.38,0,0,0-5.74-7c-1.51-1.65-2.77-3.51-4.16-5.27a2,2,0,0,1-.29-1.42,5.49,5.49,0,0,1,2.35-1.78c1.92-1,3.84-2.08,5.8-3a45.28,45.28,0,0,0,6.39-3.81c.89-.63,1.78-1.25,2.68-1.86,1.35-.92,2.7-1.86,4.07-2.74a26.44,26.44,0,0,0,7.83-7.25C164.26,522.42,164.56,522.09,164.81,521.78Z" transform="translate(-116.68 -299.77)"/><path class="cls-3" d="M205,438.47c0,.29,0,.35,0,.38-1.43,2.74-2.88,5.47-4.27,8.22a35.2,35.2,0,0,1-16,16c-2.4,1.21-4.84,2.34-7.28,3.47a6.31,6.31,0,0,1-1.71.48,1.52,1.52,0,0,1-1.62-.84,5.6,5.6,0,0,1-.49-1.09c-1.71-5.41-3.39-10.83-5.09-16.25a3.45,3.45,0,0,0-.12-.43c-.55-1.44-.14-2.67,1.73-3.12,1.5-.36,3-.64,4.54-.9,2.45-.42,4.92-.78,7.38-1.16,1.72-.27,3.43-.58,5.16-.79,1.54-.18,3.08-.27,4.62-.36a25.41,25.41,0,0,0,8.83-2.05C202,439.43,203.42,439,205,438.47Z" transform="translate(-116.68 -299.77)"/><path d="M596.92,681.33a5.7,5.7,0,0,1-3.67,2.92c-1.43.42-2.92.65-4.38,1-1.12.22-2.26.37-3.38.62a12.17,12.17,0,0,0-4.15,1.73,35.46,35.46,0,0,1-16.2-11.36,25.29,25.29,0,0,1-5.37-14.35,41.16,41.16,0,0,1,2-15c1-3.28,2.18-6.52,3.24-9.79a112.74,112.74,0,0,0,3.61-13.88,67.84,67.84,0,0,0,.88-19.81,121,121,0,0,0-1.9-12.71,75.54,75.54,0,0,0-6.83-19.4c-.37-.71-.65-1.46-1-2.15a7.13,7.13,0,0,0-1.08-1.6,2.4,2.4,0,0,0-3.92.55,3.47,3.47,0,0,0-.31.68,58.17,58.17,0,0,1-2.85,6.41c-3.66,7.65-7.6,15.15-11.62,22.61a23.72,23.72,0,0,0-2.67,7.88,26.47,26.47,0,0,0,.23,8.79,38,38,0,0,0,2.55,8.11,33.1,33.1,0,0,1,2.59,14.9,64.61,64.61,0,0,1-1.26,9.48q-1.75,9-3.44,17.92c-1.53,8.18-3,16.36-5.09,24.44a44,44,0,0,1-2.34,7.24,28.12,28.12,0,0,1-1.4,2.8,11.93,11.93,0,0,1-9,6,34.39,34.39,0,0,1-8.36.14,23.22,23.22,0,0,1-3.11-.41c-3.12-.72-4.36-2.71-3.73-5.88.18-.93.34-1.86.58-2.78a7,7,0,0,1,.64-1.66,38.65,38.65,0,0,0,4.5-13.08,51,51,0,0,0,.53-8.65,98.4,98.4,0,0,0-1-11.63q-.78-5.7-1.48-11.42c-.21-1.73-.29-3.48-.44-5.22a23.7,23.7,0,0,0-.25-2.38,5.12,5.12,0,0,0-.62-1.66,2.39,2.39,0,0,0-3.62-.65,5.5,5.5,0,0,0-1.12,1.19,17.1,17.1,0,0,0-1.12,1.94q-4.12,8.29-8.24,16.61a137.83,137.83,0,0,0-6.93,16.21,86,86,0,0,1-7,14.85c-2.49,4.32-5.09,8.58-7.63,12.87a6.86,6.86,0,0,1-2.72,2.49,17.34,17.34,0,0,1-4.9,1.77,34.62,34.62,0,0,1-13.53.37,13.69,13.69,0,0,1-4.11-1.3,6.35,6.35,0,0,1-3.57-4.7,6.28,6.28,0,0,1,.31-2.95,8.13,8.13,0,0,1,1.67-3c4.45-4.9,7.24-10.71,9.24-16.94,1.23-3.84,2.34-7.72,3.55-11.57q1-3.06,2.06-6.09a85.35,85.35,0,0,0,4-15.92A102.32,102.32,0,0,0,465,634.38a31.06,31.06,0,0,0-2.29-13.31A29.94,29.94,0,0,0,452,607.92a40,40,0,0,0-13.3-5.94A76.51,76.51,0,0,0,427,600.12a68,68,0,0,0-9.57-.22,53.18,53.18,0,0,0-22.9,6.17,45.36,45.36,0,0,0-14.63,12.6,76.18,76.18,0,0,0-8.15,13.57,145.36,145.36,0,0,0-11.25,32.4A133.26,133.26,0,0,0,358.25,679a136.64,136.64,0,0,0-.54,18.54,23.86,23.86,0,0,1-.26,4.92,15.27,15.27,0,0,1-12.2,12.45A19,19,0,0,1,332.63,713a8.44,8.44,0,0,1-4.59-6.61,17.83,17.83,0,0,1,.17-5.21,8.51,8.51,0,0,0-.15-3.26c-.09-.39-.25-.75-.41-1.22-.4.13-.77.23-1.12.37a69.51,69.51,0,0,1-7.15,2.63,24.4,24.4,0,0,1-14.57-.52c-.42-.14-.84-.32-1.24-.5a6.79,6.79,0,0,1-4.24-6.49,20.33,20.33,0,0,1,.66-5.33,73.12,73.12,0,0,0,1.84-18.71c-.09-4.49-.43-9-.93-13.43-.55-4.86-1-9.72-1.6-14.58a23.87,23.87,0,0,0-1.16-5.4,8.87,8.87,0,0,0-1.48-2.74,4,4,0,0,0-5.72-.73,13.7,13.7,0,0,0-2.33,2.3,60.93,60.93,0,0,0-12,22.36c-1,3.55-2,7.09-3,10.64a26.9,26.9,0,0,1-2.38,6.11,11.71,11.71,0,0,1-1.95,2.64,7.07,7.07,0,0,1-5.08,2.18c-.45,0-.9,0-1.35,0a6.33,6.33,0,0,1-5.65-3.82,27.26,27.26,0,0,1-1.23-3.67c-.43-1.49-.74-3-1.18-4.48a23.58,23.58,0,0,0-1.07-2.79,17.16,17.16,0,0,0-11.56-9.83,34.29,34.29,0,0,0-8.43-1.12,41.5,41.5,0,0,1-8.31-.94,21.64,21.64,0,0,1-13.84-9.44,44.29,44.29,0,0,1-4.71-9.81,106.11,106.11,0,0,1-4.55-17.8c-.83-4.92-1.45-9.86-1.81-14.84-.25-3.53-.51-7.07-.72-10.6a72.33,72.33,0,0,0-1.44-9.61c-.53-2.74-1.11-5.47-1.55-8.22a57.3,57.3,0,0,1-.57-9.26,54.07,54.07,0,0,1,2.1-15.06,49.15,49.15,0,0,1,12.92-21.41,51.7,51.7,0,0,1,4.1-3.72,116.71,116.71,0,0,1,15.24-10.54,49.8,49.8,0,0,1,10.64-4.7,39.85,39.85,0,0,0,20.68-14.55,76.87,76.87,0,0,0,7.82-13.07c2.63-5.38,4.89-10.91,7.19-16.44s4.54-10.85,7.21-16.09a83.94,83.94,0,0,1,8.57-13.84,80.61,80.61,0,0,1,13.06-12.92c4.7-3.79,9.66-7.24,14.62-10.68a17.54,17.54,0,0,1,6.32-2.61c2.58-.57,5.18-1,7.78-1.47,2.16-.38,4.33-.73,6.49-1.08a87.63,87.63,0,0,1,10-1.08c3-.14,6-.18,9-.06a85.65,85.65,0,0,1,25.73,5,95.64,95.64,0,0,1,26.17,14.53c2.53,1.95,5,4,7.36,6.12a205.29,205.29,0,0,0,28.37,21.71c8.12,5.25,16.52,10.05,24.84,15A282.74,282.74,0,0,0,499.06,478c5.39,2.48,10.73,5.06,15.93,7.91a110.2,110.2,0,0,1,25.44,19.26A57.35,57.35,0,0,1,551,519.72a43,43,0,0,0,5.55,8.14c1.44,1.73,2.88,3.45,4.4,5.1a83.22,83.22,0,0,1,15.64,25.49,107.49,107.49,0,0,1,6,20.94,147.26,147.26,0,0,1,2.13,18.12c.26,4.29.3,8.58.17,12.87-.15,4.68-.47,9.36-1.06,14-.4,3.07-.83,6.13-1.23,9.19-.08.64-.13,1.29-.16,1.94a6.07,6.07,0,0,0,1,3.69,28,28,0,0,1,3.9,10.28c.64,3.33.89,6.72,1.21,10.09a99,99,0,0,0,1.5,11.12,26.18,26.18,0,0,0,2.29,6.46C593.33,679.09,594.53,680.78,596.92,681.33ZM278.37,504.28c-.14.38-.22.56-.27.75q-.63,2.69-1.24,5.38A104.57,104.57,0,0,1,273,524.2a52.48,52.48,0,0,1-4.43,9.45,24.33,24.33,0,0,1-11.29,9.88,15.24,15.24,0,0,0-2.74,1.51,8.77,8.77,0,0,0-4,7.61,18.63,18.63,0,0,0,1.35,7,12.61,12.61,0,0,0,7.28,7.31,15.72,15.72,0,0,0,9.39.76,21.19,21.19,0,0,0,12.9-8.05,32.53,32.53,0,0,0,4.12-7.26,48.31,48.31,0,0,0,3.49-15.07,51.87,51.87,0,0,0-1.73-18.51,32.37,32.37,0,0,0-5.09-10.58A21.21,21.21,0,0,0,278.37,504.28Z" transform="translate(-116.68 -299.77)"/></svg>