<svg xmlns="http://www.w3.org/2000/svg" width="45" height="23.667" viewBox="0 0 45 23.667">
  <path id="Icon_awesome-php" data-name="Icon awesome-php" d="M22.5,7.348c12.052,0,21.319,5.077,21.319,10.652S34.545,28.652,22.5,28.652,1.181,23.576,1.181,18,10.455,7.348,22.5,7.348m0-1.181C10.076,6.166,0,11.461,0,18S10.076,29.834,22.5,29.834,45,24.539,45,18,34.924,6.166,22.5,6.166ZM15.342,17.051C14.787,19.9,12.825,19.6,10.413,19.6l.963-4.964C14.048,14.639,15.863,14.351,15.342,17.051ZM6.848,24.63h2.58l.612-3.15c2.89,0,4.683.211,6.342-1.343,1.835-1.687,2.313-4.69,1.005-6.195a4.115,4.115,0,0,0-3.27-1.174H9.148ZM19.905,9.612h2.566l-.612,3.15c2.215,0,4.268-.162,5.259.752,1.041.956.541,2.18-.584,7.952h-2.6c1.083-5.583,1.287-6.047.893-6.469s-1.245-.323-3.333-.323l-1.322,6.792H17.606l2.3-11.855Zm15.6,7.439c-.562,2.89-2.58,2.552-4.929,2.552l.963-4.964C34.228,14.639,36.028,14.351,35.508,17.051Zm-8.494,7.58H29.6l.612-3.15c3.038,0,4.718.176,6.342-1.343,1.835-1.687,2.313-4.69,1.005-6.195a4.115,4.115,0,0,0-3.27-1.174H29.32L27.014,24.63Z" transform="translate(0 -6.166)"/>
</svg>
