<svg xmlns="http://www.w3.org/2000/svg" width="28.913" height="31.928" viewBox="0 0 28.913 31.928">
  <path id="Icon_simple-webpack" data-name="Icon simple-webpack" d="M31.524,27.18l-13,7.32V28.8l8.1-4.435,4.9,2.816Zm.889-.8V11.071L27.656,13.8v9.839Zm-28.024.8,13,7.32V28.8l-8.1-4.435-4.9,2.816Zm-.889-.8V11.071L8.256,13.8v9.839L3.5,26.379Zm.556-16.3,13.33-7.508V8.084L8.846,12.76l-.065.037L4.056,10.08Zm27.8,0L18.527,2.572V8.084l8.54,4.677.065.037,4.725-2.717ZM17.386,27.5,9.4,23.129V14.463l7.989,4.593V27.5Zm1.141,0,7.989-4.373V14.463l-7.989,4.593V27.5ZM9.938,13.46l8.02-4.392,8.02,4.392-8.02,4.612Z" transform="translate(-3.5 -2.572)"/>
</svg>
